<?xml version="1.0" encoding="UTF-8"?>
<!--
  PowerLens menu bar battery asset.
  Generated for PowerLens battery status rendering.
-->
<svg version="1.1" xmlns="http://www.w3.org/2000/svg" viewBox="0 0 3300 2200">
 <style>.PowerLensBatteryShape {fill:none;opacity:1.0;stroke:black;stroke-width:0.5}
</style>
 <g id="Symbols">
  <g id="Black-S" transform="matrix(1 0 0 1 2861.82 696)">
   <path class="PowerLensBatteryShape" d="M67.5611 -60.252L66.4354 -58.918L65.3098 -57.5839L64.1841 -56.2499L63.0585 -54.9159L61.9328 -53.5819L60.8072 -52.2479L59.6815 -50.9138L58.5559 -49.5798L57.4302 -48.2458L56.3046 -46.9118L55.1789 -45.5778L54.0533 -44.2437L52.9276 -42.9097L51.802 -41.5757L50.6763 -40.2417L49.5507 -38.9077L48.425 -37.5736L47.2994 -36.2396L46.1737 -34.9056L45.2138 -33.4599L45.0127 -31.748L45.8259 -30.2359L47.357 -29.4498L49.099 -29.3945L50.8445 -29.3945L52.59 -29.3945L54.3355 -29.3945L56.0809 -29.3945L57.8264 -29.3945L59.5719 -29.3945L60.6002 -28.9039L59.9676 -27.2771L59.3349 -25.6503L58.7023 -24.0235L58.0697 -22.3967L57.437 -20.7699L56.8044 -19.1431L56.1717 -17.5163L55.5391 -15.8895L54.9064 -14.2627L54.2738 -12.6359L53.7179 -10.9846L53.8176 -9.2608L54.8327 -7.8754L56.465 -7.3381L58.1326 -7.7793L59.4383 -8.9219L60.5639 -10.2559L61.6896 -11.5899L62.8152 -12.9239L63.9409 -14.2579L65.0665 -15.592L66.1922 -16.926L67.3178 -18.26L68.4435 -19.594L69.5691 -20.928L70.6948 -22.262L71.8204 -23.5961L72.9461 -24.9301L74.0718 -26.2641L75.1974 -27.5981L76.3231 -28.9321L77.4487 -30.2662L78.5744 -31.6002L79.7 -32.9342L80.8257 -34.2682L81.9513 -35.6022L82.9112 -37.048L83.1122 -38.7599L82.2991 -40.272L80.768 -41.058L79.0259 -41.1133L77.2805 -41.1133L75.535 -41.1133L73.7895 -41.1133L72.044 -41.1133L70.2985 -41.1133L68.5531 -41.1133L67.5248 -41.6039L68.1574 -43.2307L68.7901 -44.8575L69.4227 -46.4843L70.0554 -48.1111L70.688 -49.7379L71.3206 -51.3647L71.9533 -52.9915L72.5859 -54.6183L73.2186 -56.2451L73.8512 -57.8719L74.4071 -59.5232L74.3074 -61.247L73.2923 -62.6325L71.66 -63.1697L69.9924 -62.7285L68.6867 -61.586ZM15.2832 -60.7422L14.0567 -59.3861L12.9848 -57.905L12.0898 -56.3108L11.3759 -54.6274L10.8298 -52.8823L10.4275 -51.0982L10.143 -49.2914L9.9525 -47.4723L9.8361 -45.6468L9.7782 -43.8185L9.7656 -41.9893L9.7656 -40.16L9.7656 -38.3307L9.7656 -36.5015L9.7656 -34.6722L9.7656 -32.8429L9.7656 -31.0136L9.7656 -29.1844L9.7691 -27.3551L9.8089 -25.5263L9.9022 -23.6995L10.0632 -21.8775L10.3099 -20.0651L10.6646 -18.2709L11.153 -16.5086L11.8009 -14.7987L12.6276 -13.168L13.6374 -11.6439L14.8151 -10.2454L16.1321 -8.977L17.5723 -7.8506L19.1282 -6.8903L20.78 -6.1064L22.5025 -5.4926L24.2718 -5.0299L26.0697 -4.6942L27.884 -4.4621L29.707 -4.313L31.5344 -4.23L33.3633 -4.1999L35.1926 -4.1992L37.0219 -4.1992L38.8512 -4.1992L40.6804 -4.1992L42.5097 -4.1992L44.339 -4.1992L46.1683 -4.1992L47.9975 -4.1992L49.3125 -4.4378L48.3049 -5.9609L47.6267 -7.6563L47.3058 -9.4541L47.3399 -11.2803L47.6975 -13.0721L48.3119 -14.7943L48.9735 -16.4997L49.6352 -18.2051L48.0313 -18.3594L46.202 -18.3594L44.3727 -18.3594L42.5435 -18.3594L40.7142 -18.3594L38.8849 -18.3594L37.0556 -18.3594L35.2264 -18.3594L33.3971 -18.3594L31.568 -18.3745L29.7436 -18.5002L27.9511 -18.853L26.3099 -19.6417L25.0284 -20.9344L24.3117 -22.6072L24.0249 -24.412L23.9332 -26.2386L23.9258 -28.0678L23.9258 -29.8971L23.9258 -31.7264L23.9258 -33.5556L23.9258 -35.3849L23.9258 -37.2142L23.9258 -39.0435L23.9258 -40.8727L23.9258 -42.702L23.9402 -44.5311L24.0592 -46.356L24.4041 -48.1499L25.2072 -49.7829L26.5217 -51.0419L28.2004 -51.7475L30.0038 -52.0431L31.8301 -52.1407L33.6593 -52.1484L35.4886 -52.1484L37.3178 -52.1484L39.1471 -52.1484L40.9764 -52.1484L42.8057 -52.1484L44.6349 -52.1484L46.4642 -52.1484L48.2935 -52.1484L50.1228 -52.1484L51.952 -52.1484L53.3009 -53.1824L54.4806 -54.5805L55.6603 -55.9785L56.8399 -57.3766L58.0196 -58.7746L59.1993 -60.1727L60.379 -61.5708L61.5587 -62.9688L62.7384 -64.3669L63.9181 -65.7649L63.2976 -66.3086L61.4684 -66.3086L59.6391 -66.3086L57.8098 -66.3086L55.9805 -66.3086L54.1513 -66.3086L52.322 -66.3086L50.4927 -66.3086L48.6634 -66.3086L46.8342 -66.3086L45.0049 -66.3086L43.1756 -66.3086L41.3463 -66.3086L39.5171 -66.3086L37.6878 -66.3086L35.8585 -66.3086L34.0292 -66.3086L32.2001 -66.2943L30.3719 -66.2321L28.5469 -66.1091L26.7286 -65.9101L24.9234 -65.616L23.1415 -65.2044L21.3986 -64.6507L19.717 -63.9327L18.1229 -63.0374L16.6404 -61.9674ZM111.377 -60.7422L110.047 -61.9352L108.6007 -62.9841L107.049 -63.8694L105.4125 -64.5864L103.7152 -65.1452L101.9783 -65.5652L100.2172 -65.8692L98.4422 -66.0788L96.6599 -66.2123L94.874 -66.2848L93.0868 -66.3085L91.2994 -66.3086L89.512 -66.3086L87.7245 -66.3086L85.9371 -66.3086L84.1497 -66.3086L82.3623 -66.3086L80.5748 -66.3086L78.7874 -66.3086L79.5596 -65.0097L80.3236 -63.397L80.7518 -61.6647L80.8368 -59.882L80.5994 -58.1126L80.0809 -56.4038L79.4344 -54.7374L78.7879 -53.071L79.2278 -52.1484L81.0152 -52.1484L82.8026 -52.1484L84.5901 -52.1484L86.3775 -52.1484L88.1649 -52.1484L89.9523 -52.1484L91.7398 -52.1484L93.5272 -52.1484L95.3143 -52.1258L97.0956 -51.9855L98.8413 -51.6134L100.4284 -50.8092L101.6622 -49.5279L102.3514 -47.888L102.6324 -46.1245L102.7252 -44.3399L102.734 -42.5525L102.734 -40.7651L102.734 -38.9777L102.734 -37.1903L102.734 -35.4028L102.734 -33.6154L102.734 -31.828L102.734 -30.0406L102.734 -28.2531L102.7299 -26.4657L102.6514 -24.6804L102.4001 -22.9121L101.7877 -21.2398L100.6608 -19.8627L99.1269 -18.9657L97.3914 -18.5517L95.6118 -18.3926L93.8248 -18.3594L92.0374 -18.3594L90.25 -18.3594L88.4625 -18.3594L86.6751 -18.3594L84.8877 -18.3594L83.1003 -18.3594L81.3128 -18.3594L79.5254 -18.3594L77.738 -18.3594L75.9506 -18.3594L74.7077 -17.1874L73.555 -15.8213L72.4023 -14.4553L71.2496 -13.0892L70.0969 -11.7231L68.9442 -10.357L67.7915 -8.991L66.6388 -7.6249L65.4861 -6.2588L64.3334 -4.8927L64.5895 -4.1992L66.3769 -4.1992L68.1643 -4.1992L69.9517 -4.1992L71.7392 -4.1992L73.5266 -4.1992L75.314 -4.1992L77.1014 -4.1992L78.8889 -4.1992L80.6763 -4.1992L82.4637 -4.1992L84.2511 -4.1992L86.0386 -4.1992L87.826 -4.1992L89.6134 -4.1992L91.4008 -4.1992L93.1883 -4.1995L94.9754 -4.2257L96.7612 -4.3012L98.5433 -4.4382L100.3177 -4.6517L102.078 -4.9603L103.8137 -5.3856L105.509 -5.9503L107.1422 -6.6745L108.6889 -7.5686L110.1272 -8.6283L111.4454 -9.8344L112.6382 -11.1645L113.6826 -12.6139L114.558 -14.1713L115.2602 -15.8141L115.8016 -17.517L116.204 -19.2581L116.4919 -21.0219L116.6879 -22.7984L116.8108 -24.5815L116.8759 -26.3677L116.895 -28.155L116.895 -29.9424L116.895 -31.7298L116.895 -33.5172L116.895 -35.3047L116.895 -37.0921L116.895 -38.8795L116.895 -40.6669L116.895 -42.4544L116.8736 -44.2416L116.8057 -46.0277L116.6794 -47.8105L116.4795 -49.5866L116.187 -51.3497L115.7794 -53.0896L115.232 -54.7905L114.5224 -56.4302L113.6382 -57.9825L112.5829 -59.4239ZM133.398 -35.2539L133.3274 -36.7465L133.1128 -38.2252L132.7514 -39.675L132.2429 -41.0799L131.5897 -42.4237L130.7955 -43.6892L129.8648 -44.8578L128.8019 -45.9075L127.6111 -46.8091L126.2974 -47.5185L124.8736 -47.9637L124.219 -47.2124L124.219 -45.7176L124.219 -44.2228L124.219 -42.7279L124.219 -41.2331L124.219 -39.7383L124.219 -38.2435L124.219 -36.7487L124.219 -35.2539L124.219 -33.7591L124.219 -32.2643L124.219 -30.7695L124.219 -29.2747L124.219 -27.7799L124.219 -26.285L124.219 -24.7902L124.219 -23.2954L124.8736 -22.5441L126.2974 -22.9893L127.6111 -23.6987L128.8019 -24.6003L129.8648 -25.65L130.7955 -26.8186L131.5897 -28.0841L132.2429 -29.4279L132.7514 -30.8328L133.1128 -32.2826L133.3274 -33.7613Z"/>
  </g>
  <g id="Regular-S" transform="matrix(1 0 0 1 1382.41 696)">
   <path class="PowerLensBatteryShape" d="M64.8618 -58.1481L63.8725 -56.9086L62.8832 -55.669L61.8939 -54.4295L60.9046 -53.1899L59.9153 -51.9503L58.926 -50.7108L57.9366 -49.4712L56.9473 -48.2317L55.958 -46.9921L54.9687 -45.7525L53.9794 -44.513L52.9901 -43.2734L52.0008 -42.0339L51.0115 -40.7943L50.0222 -39.5548L49.0329 -38.3152L48.0436 -37.0756L47.0543 -35.8361L46.0649 -34.5965L45.1729 -33.2908L45.1242 -31.758L46.2942 -30.7582L47.8708 -30.6641L49.4567 -30.6641L51.0427 -30.6641L52.6286 -30.6641L54.2146 -30.6641L55.8005 -30.6641L57.3865 -30.6641L58.9724 -30.6641L59.2924 -29.7834L58.7408 -28.2965L58.1892 -26.8096L57.6376 -25.3226L57.086 -23.8357L56.5344 -22.3488L55.9828 -20.8618L55.4312 -19.3749L54.8796 -17.888L54.328 -16.401L53.7764 -14.9141L53.2248 -13.4272L52.7228 -11.9251L52.966 -10.393L54.2502 -9.5533L55.7515 -9.9357L56.8294 -11.0893L57.8187 -12.3289L58.808 -13.5685L59.7974 -14.808L60.7867 -16.0476L61.776 -17.2871L62.7653 -18.5267L63.7546 -19.7663L64.7439 -21.0058L65.7332 -22.2454L66.7225 -23.4849L67.7118 -24.7245L68.7011 -25.964L69.6904 -27.2036L70.6797 -28.4432L71.6691 -29.6827L72.6584 -30.9223L73.6477 -32.1618L74.637 -33.4014L75.6263 -34.641L76.6156 -35.8805L77.4978 -37.1913L77.5473 -38.7324L76.3987 -39.7518L74.822 -39.8438L73.236 -39.8438L71.6501 -39.8438L70.0641 -39.8438L68.4782 -39.8438L66.8922 -39.8438L65.3063 -39.8438L63.7203 -39.8438L63.4176 -40.7356L63.9705 -42.2221L64.5235 -43.7085L65.0764 -45.195L65.6293 -46.6814L66.1822 -48.1679L66.7351 -49.6543L67.288 -51.1407L67.8409 -52.6272L68.3938 -54.1136L68.9468 -55.6001L69.4997 -57.0865L69.9913 -58.5913L69.7146 -60.1176L68.4198 -60.9436L66.9221 -60.5486L65.8511 -59.3877ZM14.4127 -57.1858L13.2577 -55.8839L12.2844 -54.441L11.5013 -52.8865L10.8997 -51.2529L10.4587 -49.5686L10.1519 -47.8545L9.9525 -46.1245L9.8358 -44.3868L9.7798 -42.6461L9.7656 -40.9045L9.7656 -39.1628L9.7656 -37.4211L9.7656 -35.6794L9.7656 -33.9377L9.7656 -32.1961L9.7656 -30.4544L9.7688 -28.7127L9.8021 -26.9714L9.8865 -25.2318L10.0425 -23.4973L10.293 -21.774L10.6638 -20.0727L11.1814 -18.4104L11.8695 -16.8114L12.743 -15.306L13.8021 -13.9248L15.0381 -12.6999L16.4271 -11.6511L17.9376 -10.7863L19.5393 -10.1044L21.2027 -9.5904L22.9044 -9.221L24.6276 -8.9703L26.3621 -8.8134L28.1016 -8.728L29.8429 -8.6943L31.5846 -8.6914L33.3262 -8.6914L35.0679 -8.6914L36.8096 -8.6914L38.5513 -8.6914L40.293 -8.6914L42.0347 -8.6914L43.7764 -8.6914L45.518 -8.6914L47.2597 -8.6914L47.0989 -10.1315L47.0029 -11.8667L47.2821 -13.5828L47.8474 -15.2293L46.8158 -15.7227L45.0741 -15.7227L43.3324 -15.7227L41.5907 -15.7227L39.849 -15.7227L38.1073 -15.7227L36.3656 -15.7227L34.624 -15.7227L32.8823 -15.7227L31.1406 -15.7227L29.3989 -15.7229L27.658 -15.7689L25.9227 -15.914L24.204 -16.1927L22.5257 -16.6537L20.9379 -17.3636L19.5424 -18.3979L18.4749 -19.7677L17.7427 -21.345L17.2716 -23.0205L16.9901 -24.7386L16.845 -26.4739L16.7976 -28.2148L16.7969 -29.9565L16.7969 -31.6982L16.7969 -33.4399L16.7969 -35.1816L16.7969 -36.9232L16.7969 -38.6649L16.7969 -40.4066L16.7972 -42.1483L16.8393 -43.8893L16.9763 -45.6253L17.2468 -47.3453L17.7025 -49.025L18.4114 -50.6132L19.4435 -52.0106L20.8185 -53.0711L22.3995 -53.7955L24.0764 -54.2615L25.7949 -54.5408L27.5303 -54.6861L29.2711 -54.7353L31.0128 -54.7363L32.7545 -54.7363L34.4961 -54.7363L36.2378 -54.7363L37.9795 -54.7363L39.7212 -54.7363L41.4629 -54.7363L43.2046 -54.7363L44.9463 -54.7363L46.6879 -54.7363L48.4296 -54.7363L50.1713 -54.7363L51.913 -54.7363L53.6547 -54.7363L55.2002 -55.1429L56.2841 -56.5062L57.3681 -57.8695L58.4521 -59.2327L59.536 -60.596L60.3238 -61.8164L58.5821 -61.8164L56.8404 -61.8164L55.0987 -61.8164L53.3571 -61.8164L51.6154 -61.8164L49.8737 -61.8164L48.132 -61.8164L46.3903 -61.8164L44.6486 -61.8164L42.907 -61.8164L41.1653 -61.8164L39.4236 -61.8164L37.6819 -61.8164L35.9402 -61.8164L34.1985 -61.8164L32.4568 -61.8164L30.7152 -61.8164L28.9736 -61.8018L27.2329 -61.7437L25.4955 -61.6234L23.766 -61.4199L22.0525 -61.1096L20.3686 -60.6669L18.7343 -60.0669L17.1768 -59.2898L15.7268 -58.3271ZM107.4138 -57.1858L106.1221 -58.3109L104.6988 -59.2641L103.1701 -60.0373L101.5654 -60.6377L99.9108 -61.0834L98.2262 -61.3983L96.5251 -61.6072L94.8157 -61.7331L93.1029 -61.7968L91.3889 -61.8163L89.6748 -61.8164L87.9606 -61.8164L86.2465 -61.8164L84.5324 -61.8164L82.8183 -61.8164L81.1042 -61.8164L79.3901 -61.8164L77.6759 -61.8164L75.9618 -61.8164L75.6147 -60.8137L75.8128 -59.1148L75.6364 -57.4129L75.1402 -55.7742L75.3631 -54.7363L77.0772 -54.7363L78.7913 -54.7363L80.5055 -54.7363L82.2196 -54.7363L83.9337 -54.7363L85.6478 -54.7363L87.3619 -54.7363L89.076 -54.7363L90.7902 -54.7363L92.5043 -54.7358L94.2177 -54.6915L95.926 -54.5547L97.6191 -54.2901L99.2743 -53.8491L100.8434 -53.1649L102.2286 -52.163L103.291 -50.8239L104.0317 -49.2809L104.5159 -47.638L104.8105 -45.95L104.9675 -44.2435L105.0259 -42.5305L105.029 -40.8164L105.029 -39.1023L105.029 -37.3882L105.029 -35.674L105.029 -33.9599L105.029 -32.2458L105.029 -30.5317L105.029 -28.8176L105.0076 -27.1037L104.9044 -25.3929L104.6846 -23.6934L104.3035 -22.0231L103.6999 -20.4208L102.7994 -18.9667L101.5585 -17.7921L100.0672 -16.9534L98.4495 -16.3915L96.7736 -16.0353L95.0722 -15.8301L93.3608 -15.737L91.6468 -15.7227L89.9327 -15.7227L88.2186 -15.7227L86.5045 -15.7227L84.7904 -15.7227L83.0763 -15.7227L81.3621 -15.7227L79.648 -15.7227L77.9339 -15.7227L76.2198 -15.7227L74.5057 -15.7227L72.7916 -15.7227L71.0774 -15.7227L69.3633 -15.7227L67.739 -15.5366L66.6722 -14.1949L65.6054 -12.8532L64.5386 -11.5115L63.4718 -10.1698L62.405 -8.8281L63.8358 -8.6914L65.5499 -8.6914L67.2641 -8.6914L68.9782 -8.6914L70.6923 -8.6914L72.4064 -8.6914L74.1205 -8.6914L75.8347 -8.6914L77.5488 -8.6914L79.2629 -8.6914L80.977 -8.6914L82.6911 -8.6914L84.4052 -8.6914L86.1194 -8.6914L87.8335 -8.6914L89.5476 -8.6914L91.2617 -8.6914L92.9757 -8.7082L94.6887 -8.7677L96.3985 -8.8876L98.1007 -9.088L99.7874 -9.3917L101.4458 -9.8231L103.0569 -10.4061L104.5952 -11.1602L106.0314 -12.0937L107.3385 -13.201L108.4818 -14.4763L109.4514 -15.8884L110.2394 -17.4095L110.8519 -19.0096L111.3069 -20.6617L111.6287 -22.345L111.8425 -24.0455L111.9719 -25.7545L112.0384 -27.4673L112.0604 -29.1812L112.061 -30.8954L112.061 -32.6095L112.061 -34.3236L112.061 -36.0377L112.061 -37.7518L112.061 -39.466L112.0608 -41.1801L112.0418 -42.8941L111.9798 -44.607L111.8564 -46.3165L111.6504 -48.018L111.3381 -49.7031L110.8936 -51.358L110.2921 -52.9622L109.5141 -54.4885L108.5518 -55.9056ZM125.098 -35.2539L125.0423 -36.4495L124.8727 -37.6343L124.5864 -38.7964L124.1829 -39.9231L123.6635 -41.0012L123.0305 -42.0169L122.2874 -42.9548L121.4376 -43.7972L120.4842 -44.5198L119.4316 -45.0876L118.2907 -45.4425L117.773 -44.8326L117.773 -43.6352L117.773 -42.4379L117.773 -41.2406L117.773 -40.0432L117.773 -38.8459L117.773 -37.6486L117.773 -36.4512L117.773 -35.2539L117.773 -34.0566L117.773 -32.8592L117.773 -31.6619L117.773 -30.4646L117.773 -29.2672L117.773 -28.0699L117.773 -26.8726L117.773 -25.6752L118.2907 -25.0653L119.4316 -25.4202L120.4842 -25.988L121.4376 -26.7106L122.2874 -27.553L123.0305 -28.4909L123.6635 -29.5066L124.1829 -30.5847L124.5864 -31.7114L124.8727 -32.8735L125.0423 -34.0583Z"/>
  </g>
  <g id="Ultralight-S" transform="matrix(1 0 0 1 498.001 696)">
   <path class="PowerLensBatteryShape" d="M61.9792 -58.4027L60.9555 -57.1151L59.9318 -55.8275L58.908 -54.5399L57.8843 -53.2523L56.8606 -51.9648L55.8368 -50.6772L54.8131 -49.3896L53.7894 -48.102L52.7656 -46.8144L51.7419 -45.5269L50.7182 -44.2393L49.6944 -42.9517L48.6707 -41.6641L47.647 -40.3765L46.6232 -39.089L45.5995 -37.8014L44.5758 -36.5138L43.552 -35.2262L42.5283 -33.9387L41.5134 -32.6444L41.4489 -31.1318L43.0073 -30.8003L44.6523 -30.8003L46.2972 -30.8003L47.9422 -30.8003L49.5871 -30.8003L51.2321 -30.8003L52.877 -30.8003L54.522 -30.8003L56.167 -30.8003L55.7806 -29.3864L55.2094 -27.8438L54.6381 -26.3013L54.0669 -24.7587L53.4956 -23.2161L52.9244 -21.6735L52.3531 -20.1309L51.7818 -18.5883L51.2106 -17.0458L50.6393 -15.5032L50.0681 -13.9606L49.4968 -12.418L48.9256 -10.8754L48.6046 -9.2882L49.8106 -8.411L51.0988 -9.3526L52.1235 -10.6393L53.1482 -11.9261L54.173 -13.2129L55.1977 -14.4997L56.2224 -15.7865L57.2472 -17.0733L58.2719 -18.36L59.2966 -19.6468L60.3213 -20.9336L61.3461 -22.2204L62.3708 -23.5072L63.3955 -24.794L64.4203 -26.0807L65.445 -27.3675L66.4697 -28.6543L67.4945 -29.9411L68.5192 -31.2279L69.5439 -32.5147L70.5687 -33.8014L71.5934 -35.0882L72.6181 -36.375L73.6283 -37.6726L73.6723 -39.1969L72.1154 -39.5259L70.4705 -39.5259L68.8255 -39.5259L67.1806 -39.5259L65.5356 -39.5259L63.8906 -39.5259L62.2457 -39.5259L60.6007 -39.5259L58.9558 -39.5259L59.3407 -40.9387L59.912 -42.4812L60.4834 -44.0238L61.0547 -45.5663L61.6261 -47.1089L62.1974 -48.6514L62.7687 -50.194L63.3401 -51.7365L63.9114 -53.2791L64.4828 -54.8216L65.0541 -56.3642L65.6255 -57.9067L66.1968 -59.4493L66.5221 -61.0365L65.3213 -61.9132L64.0267 -60.9778L63.003 -59.6902ZM13.7197 -54.1319L12.626 -52.8739L11.7291 -51.4689L11.0423 -49.9498L10.5465 -48.3576L10.2059 -46.7248L9.9839 -45.0715L9.8506 -43.4086L9.7834 -41.7416L9.7656 -40.0733L9.7656 -38.4049L9.7656 -36.7365L9.7656 -35.0681L9.7656 -33.3997L9.7656 -31.7313L9.7675 -30.0629L9.7973 -28.3947L9.8731 -26.7281L10.0109 -25.0656L10.2338 -23.4123L10.5727 -21.7792L11.0674 -20.1867L11.7592 -18.67L12.6707 -17.2747L13.7866 -16.0365L15.0686 -14.9709L16.4946 -14.1078L18.0287 -13.4551L19.6295 -12.9876L21.2663 -12.6666L22.9211 -12.4557L24.5843 -12.3263L26.2513 -12.2574L27.9195 -12.2338L29.5879 -12.2334L31.2563 -12.2334L32.9247 -12.2334L34.5931 -12.2334L36.2615 -12.2334L37.9299 -12.2334L39.5984 -12.2334L41.2668 -12.2334L42.9352 -12.2334L44.6036 -12.2334L46.1965 -12.3421L46.7783 -13.9058L45.8294 -14.4058L44.161 -14.4058L42.4926 -14.4058L40.8242 -14.4058L39.1558 -14.4058L37.4874 -14.4058L35.819 -14.4058L34.1505 -14.4058L32.4821 -14.4058L30.8137 -14.4058L29.1453 -14.4058L27.4769 -14.4058L25.8087 -14.4292L24.1435 -14.5293L22.487 -14.7257L20.8494 -15.0425L19.2488 -15.5106L17.7162 -16.1666L16.3004 -17.0456L15.0664 -18.1646L14.0686 -19.4988L13.3141 -20.9849L12.7732 -22.5621L12.4043 -24.1886L12.1691 -25.84L12.0373 -27.503L11.9859 -29.1705L11.9834 -30.8389L11.9834 -32.5073L11.9834 -34.1757L11.9834 -35.8441L11.9834 -37.5126L11.9834 -39.181L11.9872 -40.8494L12.038 -42.5169L12.1606 -44.1806L12.3752 -45.8349L12.7094 -47.469L13.1996 -49.0629L13.8894 -50.5804L14.8192 -51.9629L16.0014 -53.1358L17.392 -54.0535L18.9147 -54.7319L20.5114 -55.2129L22.1469 -55.5403L23.8018 -55.7496L25.4659 -55.8677L27.1336 -55.9145L28.802 -55.917L30.4704 -55.917L32.1388 -55.917L33.8072 -55.917L35.4756 -55.917L37.144 -55.917L38.8124 -55.917L40.4809 -55.917L42.1493 -55.917L43.8177 -55.917L45.4861 -55.917L47.1545 -55.917L48.8229 -55.917L50.4913 -55.917L52.1597 -55.917L53.8282 -55.917L55.4966 -55.917L56.7514 -56.7741L57.7896 -58.0802L56.1473 -58.0928L54.4789 -58.0928L52.8105 -58.0928L51.1421 -58.0928L49.4737 -58.0928L47.8052 -58.0928L46.1368 -58.0928L44.4684 -58.0928L42.8 -58.0928L41.1316 -58.0928L39.4632 -58.0928L37.7948 -58.0928L36.1263 -58.0928L34.4579 -58.0928L32.7895 -58.0928L31.1211 -58.0928L29.4527 -58.0928L27.7843 -58.0928L26.116 -58.0731L24.4492 -58.0021L22.7867 -57.8639L21.1341 -57.6368L19.502 -57.2925L17.9099 -56.7965L16.389 -56.1136L14.9803 -55.2226ZM100.75 -54.1773L99.4937 -55.2413L98.0987 -56.1152L96.5953 -56.7863L95.0223 -57.2737L93.4104 -57.6128L91.7786 -57.8388L90.1372 -57.9804L88.4916 -58.0592L86.8443 -58.0907L85.1967 -58.0928L83.5491 -58.0928L81.9015 -58.0928L80.2539 -58.0928L78.6064 -58.0928L76.9588 -58.0928L75.3112 -58.0928L73.6636 -58.0928L72.016 -58.0928L70.3684 -58.0928L68.8848 -57.8568L68.3103 -56.3126L69.3886 -55.917L71.0362 -55.917L72.6838 -55.917L74.3314 -55.917L75.979 -55.917L77.6266 -55.917L79.2742 -55.917L80.9218 -55.917L82.5694 -55.917L84.217 -55.917L85.8646 -55.917L87.5122 -55.9161L89.159 -55.8703L90.8015 -55.7431L92.4328 -55.5144L94.0409 -55.1584L95.6048 -54.6427L97.0894 -53.9314L98.4422 -52.9946L99.6012 -51.8271L100.5274 -50.4669L101.225 -48.9759L101.7253 -47.4071L102.0664 -45.7957L102.2823 -44.1626L102.4001 -42.5194L102.4406 -40.8724L102.441 -39.2248L102.441 -37.5772L102.441 -35.9296L102.441 -34.282L102.441 -32.6344L102.441 -30.9868L102.4399 -29.3393L102.393 -27.6925L102.2652 -26.05L102.0365 -24.4187L101.6806 -22.8106L101.1651 -21.2466L100.4539 -19.762L99.5179 -18.4086L98.3524 -17.2475L96.9929 -16.3205L95.5021 -15.6224L93.9334 -15.1214L92.3222 -14.7796L90.6892 -14.5632L89.046 -14.4455L87.399 -14.4061L85.7514 -14.4058L84.1038 -14.4058L82.4562 -14.4058L80.8086 -14.4058L79.161 -14.4058L77.5134 -14.4058L75.8658 -14.4058L74.2182 -14.4058L72.5706 -14.4058L70.923 -14.4058L69.2754 -14.4058L67.6278 -14.4058L65.9802 -14.4058L64.3326 -14.4058L62.685 -14.4058L61.0374 -14.4058L59.3898 -14.4058L58.2384 -13.3776L57.5148 -12.2334L59.1624 -12.2334L60.81 -12.2334L62.4576 -12.2334L64.1052 -12.2334L65.7528 -12.2334L67.4004 -12.2334L69.048 -12.2334L70.6956 -12.2334L72.3432 -12.2334L73.9908 -12.2334L75.6384 -12.2334L77.286 -12.2334L78.9336 -12.2334L80.5812 -12.2334L82.2288 -12.2334L83.8764 -12.2334L85.524 -12.2334L87.1716 -12.2386L88.8186 -12.2784L90.4637 -12.368L92.1038 -12.5237L93.7329 -12.7682L95.3395 -13.1314L96.9025 -13.6496L98.3887 -14.3578L99.7573 -15.2724L100.9747 -16.3801L102.0086 -17.661L102.8399 -19.0818L103.4633 -20.6056L103.9063 -22.1918L104.2086 -23.8111L104.4061 -25.4466L104.5267 -27.0896L104.5907 -28.7359L104.6126 -30.3833L104.613 -32.0309L104.613 -33.6785L104.613 -35.3261L104.613 -36.9737L104.613 -38.6213L104.6111 -40.2689L104.5818 -41.9162L104.5081 -43.5621L104.3746 -45.2042L104.16 -46.8375L103.8348 -48.4523L103.3617 -50.0296L102.7007 -51.5374L101.8267 -52.9322ZM113.654 -35.1631L113.608 -36.1319L113.4683 -37.0916L113.2332 -38.0324L112.9028 -38.9442L112.4785 -39.8162L111.9628 -40.6375L111.3587 -41.396L110.669 -42.0775L109.8962 -42.6628L109.0435 -43.1231L108.1191 -43.4112L107.692 -42.9249L107.692 -41.9546L107.692 -40.9844L107.692 -40.0142L107.692 -39.044L107.692 -38.0738L107.692 -37.1035L107.692 -36.1333L107.692 -35.1631L107.692 -34.1929L107.692 -33.2227L107.692 -32.2524L107.692 -31.2822L107.692 -30.312L107.692 -29.3418L107.692 -28.3716L107.692 -27.4013L108.1191 -26.915L109.0435 -27.2031L109.8962 -27.6634L110.669 -28.2487L111.3587 -28.9302L111.9628 -29.6887L112.4785 -30.51L112.9028 -31.382L113.2332 -32.2938L113.4683 -33.2346L113.608 -34.1943Z"/>
  </g>
 </g>
</svg>
