<?xml version="1.0" encoding="UTF-8"?>
<!--
  PowerLens menu bar battery asset.
  Generated for PowerLens battery status rendering.
-->
<svg version="1.1" xmlns="http://www.w3.org/2000/svg" viewBox="0 0 3300 2200">
 <style>.PowerLensBatteryShape {fill:none;opacity:1.0;stroke:black;stroke-width:0.5}
</style>
 <g id="Symbols">
  <g id="Black-S" transform="matrix(1 0 0 1 2861.82 696)">
   <path class="PowerLensBatteryShape" d="M61.20837-7.33764L66.91667-7.33764C70.90954 -7.33764 73.00949 -9.38577 73.00949 -13.1734L73.00949-19.96309C73.00949 -22.54427 73.66017 -23.69461 75.84886 -25.40606C80.34455 -28.94121 83.1543 -34.07554 83.1543 -39.71493L83.1543-45.77511C83.1543 -47.6549 81.7642 -49.00165 79.81217 -49.00165L75.90798-49.00165L75.90798-59.29839C75.90798 -61.43067 74.07425 -63.17021 71.856 -63.17021C69.66731 -63.17021 67.83357 -61.43067 67.83357 -59.29839L67.83357-49.00165L60.38022-49.00165L60.38022-59.29839C60.38022 -61.43067 58.54642 -63.17021 56.35779 -63.17021C54.13948 -63.17021 52.30574 -61.43067 52.30574 -59.29839L52.30574-49.00165L48.31288-49.00165C46.36078 -49.00165 44.9707 -47.6549 44.9707 -45.77511L44.9707-39.71493C44.9707 -34.07554 47.7805 -28.94121 52.27618 -25.40606C54.46488 -23.69461 55.11555 -22.54427 55.11555 -19.96309L55.11555-13.1734C55.11555 -9.38577 57.21551 -7.33764 61.20837 -7.33764ZM33.6914-66.3086L31.9981-66.2900L30.3059-66.2286L28.6164-66.1149L26.9326-65.9367L25.2591-65.6790L23.6036-65.3243L21.9774-64.8535L20.3968-64.2475L18.8816-63.4929L17.4530-62.5852L16.1268-61.5335L14.9092-60.3575L13.8078-59.0721L12.8442-57.6806L12.0338-56.1946L11.3785-54.6339L10.8671-53.0201L10.4806-51.3718L10.1985-49.7022L10.0014-48.0205L9.8723-46.3321L9.7979-44.6404L9.7675-42.9474L9.7656-41.2540L9.7656-39.5606L9.7656-37.8672L9.7656-36.1738L9.7656-34.4804L9.7656-32.7870L9.7656-31.0936L9.7656-29.4002L9.7668-27.7068L9.7937-26.0137L9.8636-24.3218L9.9871-22.6330L10.1773-20.9505L10.4500-19.2794L10.8247-17.6283L11.3222-16.0102L11.9620-14.4430L12.7575-12.9490L13.7091-11.5493L14.8034-10.2580L16.0173-9.0781L17.3370-8.0181L18.7574-7.0976L20.2651-6.3282L21.8400-5.7074L23.4623-5.2234L25.1154-4.8576L26.7874-4.5912L28.4705-4.4059L30.1597-4.2868L31.8517-4.2214L33.5449-4.1995L35.2383-4.1992L36.9317-4.1992L38.6251-4.1992L40.3185-4.1992L42.0119-4.1992L43.7053-4.1992L45.3987-4.1992L47.0921-4.1992L48.7855-4.1992L50.4789-4.1992L52.1723-4.1992L52.7189-4.9117L52.2641-6.5389L52.1409-8.2258L52.1409-9.9192L52.1409-11.6126L52.1409-13.3060L52.1409-14.9994L52.1394-16.6928L51.9796-18.3594L50.2862-18.3594L48.5928-18.3594L46.8994-18.3594L45.2060-18.3594L43.5126-18.3594L41.8192-18.3594L40.1258-18.3594L38.4324-18.3594L36.7390-18.3594L35.0456-18.3594L33.3522-18.3594L31.6590-18.3719L29.9691-18.4754L28.3007-18.7562L26.7289-19.3716L25.4206-20.4363L24.5428-21.8727L24.1319-23.5121L23.9695-25.1970L23.9261-26.8897L23.9258-28.5831L23.9258-30.2765L23.9258-31.9699L23.9258-33.6633L23.9258-35.3567L23.9258-37.0501L23.9258-38.7435L23.9258-40.4368L23.9258-42.1302L23.9274-43.8236L23.9856-45.5158L24.1799-47.1971L24.6493-48.8201L25.5763-50.2275L26.9034-51.2649L28.4985-51.8181L30.1736-52.0585L31.8646-52.1414L33.5580-52.1484L35.2514-52.1484L36.9447-52.1484L38.6381-52.1484L40.3315-52.1484L42.0249-52.1484L43.7183-52.1484L45.4117-52.1484L47.1051-52.1484L48.3968-52.5501L48.3968-54.2435L48.3968-55.9369L48.3968-57.6303L48.3968-59.3236L48.3968-61.0170L48.3968-62.7104L48.3968-64.4038L48.6017-66.0757L47.2385-66.3086L45.5451-66.3086L43.8518-66.3086L42.1584-66.3086L40.4650-66.3086L38.7716-66.3086L37.0782-66.3086L35.3848-66.3086ZM93.5344-4.2012L95.1840-4.2317L96.8321-4.3055L98.4770-4.4319L100.1156-4.6231L101.7431-4.8930L103.3515-5.2589L104.9297-5.7384L106.4620-6.3486L107.9295-7.1011L109.3129-7.9987L110.5985-9.0316L111.7805-10.1819L112.8522-11.4354L113.7931-12.7898L114.5886-14.2343L115.2367-15.7508L115.7469-17.3194L116.1365-18.9222L116.4244-20.5465L116.6293-22.1834L116.7667-23.8275L116.8497-25.4752L116.8889-27.1245L116.8950-28.7743L116.8950-30.4242L116.8950-32.0741L116.8950-33.7239L116.8950-35.3738L116.8950-37.0236L116.8950-38.6735L116.8950-40.3233L116.8950-41.9732L116.8856-43.6230L116.8406-45.2722L116.7507-46.9195L116.6048-48.5628L116.3897-50.1984L116.0896-51.8205L115.6857-53.4198L115.1588-54.9827L114.4918-56.4910L113.6758-57.9241L112.7132-59.2631L111.6198-60.4977L110.4172-61.6264L109.1148-62.6381L107.7180-63.5148L106.2408-64.2480L104.7016-64.8406L103.1188-65.3048L101.5073-65.6573L99.8781-65.9159L98.2384-66.0975L96.5929-66.2159L94.9444-66.2829L93.2948-66.3079L91.6450-66.3086L89.9951-66.3086L88.3452-66.3086L86.6954-66.3086L85.0455-66.3086L83.3957-66.3086L81.7458-66.3086L80.0960-66.3086L79.8222-65.2312L79.8464-63.5822L79.8464-61.9323L79.8464-60.2825L79.8464-58.6326L79.8464-56.9828L79.8464-55.3329L79.8464-53.6831L79.9616-52.1484L81.6114-52.1484L83.2613-52.1484L84.9111-52.1484L86.5610-52.1484L88.2108-52.1484L89.8607-52.1484L91.5105-52.1484L93.1604-52.1484L94.8102-52.1406L96.4575-52.0548L98.0888-51.8154L99.6477-51.2880L100.9853-50.3337L101.9551-49.0102L102.4507-47.4413L102.6588-45.8056L102.7286-44.1574L102.7340-42.5076L102.7340-40.8578L102.7340-39.2079L102.7340-37.5581L102.7340-35.9082L102.7340-34.2584L102.7340-32.6085L102.7340-30.9586L102.7340-29.3088L102.7340-27.6589L102.7205-26.0092L102.6229-24.3626L102.3586-22.7354L101.7660-21.2016L100.7305-19.9253L99.3423-19.0498L97.7556-18.6098L96.1173-18.4211L94.4688-18.3616L92.8189-18.3594L91.1691-18.3594L89.5192-18.3594L87.8694-18.3594L86.2195-18.3594L84.5697-18.3594L82.9198-18.3594L81.2700-18.3594L79.6201-18.3594L77.9703-18.3594L76.3204-18.3594L75.9902-16.9112L75.9842-15.2614L75.9842-13.6115L75.9842-11.9617L75.9842-10.3118L75.9842-8.6620L75.9256-7.0142L75.5878-5.4023L75.3861-4.1992L77.0359-4.1992L78.6858-4.1992L80.3356-4.1992L81.9855-4.1992L83.6353-4.1992L85.2852-4.1992L86.9350-4.1992L88.5849-4.1992L90.2347-4.1992L91.8846-4.1992ZM34.8706-24.9512L35.513-24.9512L36.1554-24.9512L36.7978-24.9512L37.4402-24.9512L38.0825-24.9512L38.7249-24.9512L39.3673-24.9512L40.0097-24.9512L40.6521-24.9512L41.2945-24.9512L41.9369-24.9512L42.5793-24.9512L43.2217-24.9512L43.8641-24.9512L44.5064-24.9512L45.1488-24.9512L45.7912-24.9512L45.6442-25.4075L45.1828-25.8543L44.7327-26.3127L44.2946-26.7824L43.8687-27.2632L43.4556-27.7551L43.0558-28.2579L42.6698-28.7713L42.2982-29.2952L41.9414-29.8293L41.6001-30.3735L41.2747-30.9273L40.9657-31.4904L40.6737-32.0625L40.3994-32.6433L40.1431-33.2323L39.9053-33.829L39.6865-34.4329L39.4873-35.0435L39.308-35.6603L39.1489-36.2827L39.0105-36.9099L38.8929-37.5414L38.7964-38.1764L38.7214-38.8143L38.6677-39.4544L38.6356-40.0959L38.6235-40.7382L38.623-41.3806L38.623-42.023L38.623-42.6654L38.623-43.3078L38.623-43.9501L38.623-44.5925L38.5818-45.2232L38.1248-45.5566L37.4824-45.5566L36.84-45.5566L36.1976-45.5566L35.5553-45.5566L34.9129-45.5566L34.2705-45.5566L33.6282-45.5488L32.9883-45.5027L32.3613-45.3736L31.7756-45.1211L31.2758-44.7255L30.9016-44.2095L30.6701-43.6136L30.5577-42.9823L30.5205-42.3414L30.5176-41.699L30.5176-41.0566L30.5176-40.4142L30.5176-39.7718L30.5176-39.1294L30.5176-38.487L30.5176-37.8446L30.5176-37.2022L30.5176-36.5599L30.5176-35.9175L30.5176-35.2751L30.5176-34.6327L30.5176-33.9903L30.5176-33.3479L30.5176-32.7055L30.5176-32.0631L30.5176-31.4207L30.5176-30.7783L30.5176-30.136L30.5176-29.4936L30.5176-28.8512L30.5195-28.2088L30.5493-27.5674L30.6517-26.9337L30.87-26.3306L31.2356-25.8036L31.7304-25.3953L32.3166-25.1338L32.9452-25.0018L33.5858-24.9547L34.2282-24.9512ZM82.19-35.2239L82.1924-35.2239L82.1948-35.2239L82.1972-35.2239L82.1996-35.2239L82.202-35.2239L82.2044-35.2239L82.2068-35.2239L82.2092-35.2239L82.2116-35.2239L82.214-35.2239L82.2164-35.2239L82.2188-35.2239L82.2212-35.2239L82.2236-35.2239L82.226-35.2239L82.2284-35.2239L82.2308-35.2239L82.2332-35.2239L82.2356-35.2239L82.238-35.2239L82.2404-35.2239L82.2428-35.2239L82.2452-35.2239L82.2476-35.2239L82.25-35.2239L82.25-35.2263L82.25-35.2287L82.25-35.2311L82.25-35.2335L82.25-35.2359L82.25-35.2383L82.25-35.2407L82.25-35.2431L82.25-35.2455L82.25-35.2479L82.25-35.2503L82.25-35.2527L82.25-35.2551L82.25-35.2575L82.25-35.2599L82.25-35.2623L82.25-35.2647L82.25-35.2671L82.25-35.2695L82.25-35.2719L82.25-35.2743L82.25-35.2767L82.25-35.2791L82.25-35.2815L82.25-35.2839L82.2476-35.2839L82.2452-35.2839L82.2428-35.2839L82.2404-35.2839L82.238-35.2839L82.2356-35.2839L82.2332-35.2839L82.2308-35.2839L82.2284-35.2839L82.226-35.2839L82.2236-35.2839L82.2212-35.2839L82.2188-35.2839L82.2164-35.2839L82.214-35.2839L82.2116-35.2839L82.2092-35.2839L82.2068-35.2839L82.2044-35.2839L82.202-35.2839L82.1996-35.2839L82.1972-35.2839L82.1948-35.2839L82.1924-35.2839L82.19-35.2839L82.19-35.2815L82.19-35.2791L82.19-35.2767L82.19-35.2743L82.19-35.2719L82.19-35.2695L82.19-35.2671L82.19-35.2647L82.19-35.2623L82.19-35.2599L82.19-35.2575L82.19-35.2551L82.19-35.2527L82.19-35.2503L82.19-35.2479L82.19-35.2455L82.19-35.2431L82.19-35.2407L82.19-35.2383L82.19-35.2359L82.19-35.2335L82.19-35.2311L82.19-35.2287L82.19-35.2263ZM124.5890-22.4977L126.0305-22.8801L127.3669-23.5454L128.5820-24.4137L129.6698-25.4376L130.6264-26.5851L131.4472-27.8334L132.1280-29.1634L132.6645-30.5579L133.0543-32.0003L133.2972-33.4746L133.3951-34.9656L133.3519-36.4592L133.1656-37.9417L132.8326-39.3983L132.3522-40.8131L131.7267-42.1700L130.9593-43.4519L130.0547-44.6409L129.0168-45.7154L127.8504-46.6483L126.5598-47.3993L125.1554-47.9030L124.2190-47.5007L124.2190-46.0059L124.2190-44.5111L124.2190-43.0162L124.2190-41.5214L124.2190-40.0266L124.2190-38.5318L124.2190-37.0370L124.2190-35.5422L124.2190-34.0474L124.2190-32.5526L124.2190-31.0578L124.2190-29.5630L124.2190-28.0682L124.2190-26.5734L124.2190-25.0786L124.2190-23.5838Z" />
  </g>
  <g id="Regular-S" transform="matrix(1 0 0 1 1382.41 696)">
   <path class="PowerLensBatteryShape" d="M58.74219-9.53412L63.914-9.53412C66.65028 -9.53412 68.03344 -10.86952 68.03344 -13.48348L68.03344-22.63233C68.03344 -25.04741 69.53688 -26.3544 71.73193 -27.86027C75.67088 -30.61628 77.6855 -34.76452 77.6855 -39.08326L77.6855-44.1407C77.6855 -46.72628 76.30233 -48.00481 73.56611 -48.03326L71.76198-48.06166L71.76198-57.92086C71.76198 -59.62557 70.31865 -60.96101 68.54463 -60.96101C66.74049 -60.96101 65.29716 -59.62557 65.29716 -57.92086L65.29716-48.06166L57.38908-48.06166L57.38908-57.92086C57.38908 -59.62557 55.97586 -60.96101 54.20184 -60.96101C52.3977 -60.96101 50.95437 -59.62557 50.95437 -57.92086L50.95437-48.06166L49.09014-48.03326C46.29375 -48.00481 44.9707 -46.72628 44.9707 -44.1407L44.9707-39.08326C44.9707 -34.76452 46.95525 -30.61628 50.92432 -27.86027C53.11931 -26.3544 54.6228 -25.04741 54.6228 -22.63233L54.6228-13.48348C54.6228 -10.86952 55.97586 -9.53412 58.74219 -9.53412ZM30.6152-61.8164L28.9703-61.8017L27.3262-61.7482L25.6848-61.6401L24.0498-61.4600L22.4277-61.1883L20.8287-60.8036L19.2685-60.2842L17.7679-59.6121L16.3527-58.7753L15.0482-57.7748L13.8754-56.6228L12.8544-55.3343L12.0003-53.9296L11.3151-52.4350L10.7873-50.8776L10.3981-49.2797L10.1244-47.6579L9.9437-46.0230L9.8356-44.3817L9.7816-42.7376L9.7657-41.0927L9.7656-39.4476L9.7656-37.8026L9.7656-36.1576L9.7656-34.5126L9.7656-32.8675L9.7656-31.2225L9.7656-29.5775L9.7786-27.9326L9.8281-26.2883L9.9301-24.6466L10.1025-23.0108L10.3654-21.3872L10.7410-19.7860L11.2517-18.2229L11.9163-16.7190L12.7471-15.3003L13.7432-13.9924L14.8978-12.8226L16.1925-11.8094L17.5995-10.9590L19.0941-10.2736L20.6503-9.7423L22.2468-9.3477L23.8676-9.0677L25.5018-8.8810L27.1428-8.7675L28.7867-8.7096L30.4316-8.6916L32.0766-8.6914L33.7216-8.6914L35.3667-8.6914L37.0117-8.6914L38.6567-8.6914L40.3017-8.6914L41.9468-8.6914L43.5918-8.6914L45.2368-8.6914L46.8818-8.6914L48.5269-8.6914L50.1719-8.6914L51.8169-8.6914L52.3642-9.7891L52.3642-11.4341L52.3642-13.0791L52.3642-14.7242L51.7178-15.7227L50.0727-15.7227L48.4277-15.7227L46.7827-15.7227L45.1377-15.7227L43.4927-15.7227L41.8476-15.7227L40.2026-15.7227L38.5576-15.7227L36.9126-15.7227L35.2675-15.7227L33.6225-15.7227L31.9775-15.7227L30.3325-15.7227L28.6875-15.7316L27.0444-15.8073L25.4089-15.9811L23.7929-16.2854L22.2205-16.7648L20.7412-17.4793L19.4493-18.4907L18.4572-19.7977L17.7637-21.2869L17.3057-22.8657L17.0218-24.4855L16.8654-26.1227L16.8023-27.7664L16.7969-29.4114L16.7969-31.0564L16.7969-32.7014L16.7969-34.3464L16.7969-35.9915L16.7969-37.6365L16.7969-39.2815L16.7969-40.9265L16.8004-42.5715L16.8568-44.2155L17.0035-45.8536L17.2744-47.4756L17.7146-49.0596L18.3819-50.5609L19.3363-51.8963L20.6022-52.9393L22.0716-53.6732L23.6409-54.1623L25.2562-54.4702L26.8916-54.6456L28.5345-54.7241L30.1795-54.7363L31.8245-54.7363L33.4695-54.7363L35.1145-54.7363L36.7596-54.7363L38.4046-54.7363L40.0496-54.7363L41.6946-54.7363L43.3396-54.7363L44.9847-54.7363L46.6297-54.7363L47.4201-55.5909L47.4201-57.2360L47.4201-58.8810L47.4201-60.5260L47.0654-61.8164L45.4204-61.8164L43.7754-61.8164L42.1304-61.8164L40.4853-61.8164L38.8403-61.8164L37.1953-61.8164L35.5503-61.8164L33.9052-61.8164L32.2602-61.8164ZM91.6039-8.6921L93.2197-8.7138L94.8345-8.7754L96.4461-8.8921L98.0509-9.0808L99.6422-9.3607L101.2096-9.7523L102.7378-10.2758L104.2064-10.9483L105.5909-11.7799L106.8675-12.7690L108.0106-13.9095L109.0012-15.1850L109.8328-16.5695L110.5034-18.0389L111.0234-19.5683L111.4106-21.1367L111.6856-22.7289L111.8696-24.3342L111.9821-25.9461L112.0406-27.5610L112.0604-29.1768L112.0610-30.7928L112.0610-32.4088L112.0610-34.0248L112.0610-35.6408L112.0610-37.2567L112.0610-38.8727L112.0610-40.4887L112.0548-42.1047L112.0183-43.7202L111.9360-45.3340L111.7914-46.9434L111.5659-48.5433L111.2389-50.1255L110.7888-51.6770L110.1949-53.1792L109.4424-54.6082L108.5263-55.9382L107.4539-57.1457L106.2445-58.2161L104.9161-59.1346L103.4903-59.8933L101.9917-60.4962L100.4432-60.9564L98.8631-61.2934L97.2644-61.5280L95.6558-61.6803L94.0423-61.7684L92.4269-61.8088L90.8109-61.8164L89.1949-61.8164L87.5790-61.8164L85.9630-61.8164L84.3470-61.8164L82.7310-61.8164L81.1150-61.8164L79.4990-61.8164L77.8831-61.8164L76.2671-61.8164L75.4638-61.0037L75.4638-59.3877L75.4638-57.7717L75.4638-56.1558L75.6603-54.7363L77.2763-54.7363L78.8923-54.7363L80.5083-54.7363L82.1242-54.7363L83.7402-54.7363L85.3562-54.7363L86.9722-54.7363L88.5882-54.7363L90.2042-54.7363L91.8201-54.7363L93.4360-54.7213L95.0497-54.6385L96.6554-54.4593L98.2408-54.1499L99.7806-53.6636L101.2230-52.9401L102.4694-51.9187L103.4151-50.6128L104.0821-49.1431L104.5266-47.5905L104.8041-45.9991L104.9584-44.3908L105.0224-42.7762L105.0290-41.1603L105.0290-39.5443L105.0290-37.9283L105.0290-36.3123L105.0290-34.6964L105.0290-33.0804L105.0290-31.4644L105.0290-29.8484L105.0284-28.2324L104.9880-26.6171L104.8661-25.0059L104.6327-23.4074L104.2480-21.8387L103.6586-20.3359L102.8016-18.9696L101.6407-17.8522L100.2494-17.0356L98.7362-16.4727L97.1640-16.1025L95.5643-15.8763L93.9529-15.7585L92.3374-15.7228L90.7215-15.7227L89.1055-15.7227L87.4895-15.7227L85.8735-15.7227L84.2575-15.7227L82.6416-15.7227L81.0256-15.7227L79.4096-15.7227L77.7936-15.7227L76.1776-15.7227L74.5616-15.7227L72.9457-15.7227L71.3297-15.7227L70.4386-14.9978L70.4386-13.3818L70.4386-11.7658L70.4386-10.1498L70.5962-8.6914L72.2122-8.6914L73.8281-8.6914L75.4441-8.6914L77.0601-8.6914L78.6761-8.6914L80.2921-8.6914L81.9080-8.6914L83.5240-8.6914L85.1400-8.6914L86.7560-8.6914L88.3720-8.6914L89.9880-8.6914ZM29.2023-20.5078L30.3031-20.5078L31.4039-20.5078L32.5047-20.5078L33.6055-20.5078L34.7063-20.5078L35.8071-20.5078L36.9079-20.5078L38.0087-20.5078L39.1095-20.5078L40.2103-20.5078L41.3111-20.5078L42.4119-20.5078L43.5127-20.5078L44.6135-20.5078L45.7143-20.5078L46.8151-20.5078L47.9159-20.5078L49.0167-20.5078L50.1175-20.5078L51.2183-20.5078L52.2998-20.6944L52.028-21.7567L51.5267-22.7364L50.846-23.6011L50.0481-24.359L49.1806-25.0364L48.2736-25.6601L47.3458-26.2524L46.4324-26.8667L45.5534-27.5292L44.7143-28.2416L43.9199-29.0033L43.1749-29.8135L42.4842-30.6704L41.8527-31.5717L41.2848-32.5144L40.7848-33.4947L40.3561-34.5082L40.0019-35.5501L39.7244-36.615L39.5249-37.6972L39.4039-38.7909L39.3609-39.8904L39.3555-40.9912L39.3555-42.092L39.3555-43.1928L39.3555-44.2936L39.3555-45.3944L39.3755-46.4949L39.531-47.5823L39.915-48.6079L40.5683-49.4825L40.0152-49.9512L38.9144-49.9512L37.8136-49.9512L36.7128-49.9512L35.612-49.9512L34.5112-49.9512L33.4104-49.9512L32.3096-49.9512L31.2088-49.9512L30.108-49.9512L29.0072-49.9512L27.9064-49.9512L26.8057-49.9434L25.707-49.8891L24.6235-49.7145L23.6058-49.3206L22.7543-48.6377L22.1411-47.7331L21.7865-46.6954L21.6291-45.6072L21.5834-44.5076L21.582-43.4068L21.582-42.306L21.582-41.2052L21.582-40.1044L21.582-39.0036L21.582-37.9028L21.582-36.802L21.582-35.7012L21.582-34.6004L21.582-33.4996L21.582-32.3988L21.582-31.298L21.582-30.1972L21.582-29.0964L21.582-27.9956L21.582-26.8948L21.5856-25.7941L21.6402-24.695L21.8218-23.6103L22.216-22.5847L22.8806-21.7096L23.772-21.0668L24.811-20.705L25.9007-20.5499L27.0007-20.5084L28.1015-20.5078ZM71.9413-20.5078L72.2748-20.5078L72.6083-20.5078L72.9418-20.5078L73.2752-20.5078L73.6087-20.5078L73.9422-20.5078L74.2757-20.5078L74.6092-20.5078L74.9427-20.5078L75.2762-20.5091L75.6096-20.5155L75.9428-20.5286L76.2756-20.549L76.6077-20.5802L76.9384-20.6224L77.267-20.6794L77.5919-20.7541L77.9114-20.8492L78.2229-20.968L78.523-21.113L78.8083-21.2854L79.0758-21.4843L79.3236-21.7073L79.5508-21.9512L79.7548-22.2148L79.9324-22.4969L80.0827-22.7945L80.2065-23.1041L80.3063-23.4222L80.3844-23.7464L80.4442-24.0744L80.4893-24.4048L80.5219-24.7366L80.544-25.0694L80.5578-25.4026L80.565-25.736L80.5664-26.0695L80.5664-26.4029L80.5664-26.7364L80.5664-27.0699L80.5664-27.4034L80.5664-27.7369L80.5664-28.0704L80.5664-28.4039L80.5664-28.7373L80.5664-29.0708L80.5664-29.4043L80.5664-29.7378L80.5664-30.0713L80.5664-30.4048L80.5664-30.7383L80.5419-30.9932L80.3391-30.7285L80.1363-30.4637L79.9335-30.199L79.718-29.9447L79.4985-29.6936L79.2791-29.4425L79.0521-29.1984L78.8173-28.9615L78.5826-28.7246L78.3448-28.491L78.0962-28.2687L77.8476-28.0464L77.599-27.8242L77.3385-27.6159L77.0775-27.4084L76.8164-27.2009L76.5478-27.0034L76.2756-26.8107L76.0034-26.6181L75.7277-26.4306L75.4468-26.251L75.1658-26.0713L74.8852-25.8911L74.607-25.7072L74.3288-25.5232L74.0507-25.3393L73.7804-25.1441L73.5114-24.947L73.2423-24.7499L72.9829-24.5408L72.7302-24.3232L72.4774-24.1056L72.2336-23.8789L72.0089-23.6324L71.7843-23.3859L71.5617-23.1379L71.3822-22.8568L71.2028-22.5757L71.0233-22.2947L70.8925-21.9893L70.7757-21.6769L70.6588-21.3646L70.6585-21.0511L70.7693-20.7366L70.9408-20.5078L71.2743-20.5078L71.6078-20.5078ZM118.0690-25.0294L119.2237-25.3353L120.2940-25.8685L121.2665-26.5651L122.1360-27.3871L122.8993-28.3087L123.5531-29.3110L124.0943-30.3784L124.5195-31.4971L124.8277-32.6535L125.0191-33.8349L125.0959-35.0293L125.0612-36.2257L124.9134-37.4134L124.6491-38.5807L124.2674-39.7150L123.7695-40.8033L123.1576-41.8317L122.4350-42.7856L121.6048-43.6473L120.6706-44.3947L119.6362-44.9950L118.5103-45.3958L117.7730-45.0571L117.7730-43.8598L117.7730-42.6625L117.7730-41.4651L117.7730-40.2678L117.7730-39.0705L117.7730-37.8731L117.7730-36.6758L117.7730-35.4785L117.7730-34.2812L117.7730-33.0838L117.7730-31.8865L117.7730-30.6892L117.7730-29.4918L117.7730-28.2945L117.7730-27.0972L117.7730-25.8999Z" />
  </g>
  <g id="Ultralight-S" transform="matrix(1 0 0 1 498.001 696)">
   <path class="PowerLensBatteryShape" d="M53.3478-8.40215L61.74073-8.40215C63.60501 -8.40215 64.65695 -9.5071 64.65695 -11.38877L64.65695-19.40228C64.65695 -22.47528 65.59915 -24.16667 68.16479 -26.10912C71.83881 -28.94384 73.9165 -33.27056 73.9165 -37.99321L73.9165-48.42509C73.9165 -50.18682 72.8349 -51.25793 71.08925 -51.26014L67.18817-51.26234L67.18817-59.86107C67.18817 -60.96537 66.30972 -61.92311 65.11015 -61.92311C63.93802 -61.92311 63.00026 -60.96537 63.00026 -59.86107L63.00026-51.26234L51.9718-51.26234L51.9718-59.86107C51.9718 -60.96537 51.06598 -61.92311 49.92573 -61.92311C48.7536 -61.92311 47.81584 -60.96537 47.81584 -59.86107L47.81584-51.26234L43.8806-51.26014C42.21946 -51.25793 41.2017 -50.18682 41.2017 -48.42509L41.2017-37.99321C41.2017 -33.27056 43.33647 -28.94384 46.98305 -26.10912C49.57841 -24.16667 50.46124 -22.47528 50.46124 -19.40228L50.46124-11.38877C50.46124 -9.5071 51.51096 -8.40215 53.3478 -8.40215ZM27.7090-58.0928L26.1657-58.0743L24.6237-58.0124L23.0849-57.8946L21.5534-57.7045L20.0366-57.4209L18.5473-57.0177L17.1068-56.4660L15.7448-55.7423L14.4943-54.8399L13.3778-53.7759L12.4099-52.5753L11.6159-51.2532L11.0012-49.8385L10.5482-48.3638L10.2281-46.8544L10.0116-45.3264L9.8747-43.7893L9.7980-42.2478L9.7675-40.7048L9.7656-39.1614L9.7656-37.6180L9.7656-36.0746L9.7656-34.5312L9.7656-32.9878L9.7656-31.4444L9.7687-29.9010L9.7984-28.3579L9.8677-26.8161L9.9892-25.2776L10.1804-23.7463L10.4649-22.2296L10.8725-20.7416L11.4373-19.3063L12.1854-17.9578L13.1199-16.7312L14.2149-15.6451L15.4445-14.7143L16.7910-13.9623L18.2227-13.3885L19.7075-12.9692L21.2220-12.6738L22.7521-12.4731L24.2901-12.3443L25.8316-12.2700L27.3746-12.2373L28.9180-12.2334L30.4614-12.2334L32.0048-12.2334L33.5482-12.2334L35.0916-12.2334L36.6350-12.2334L38.1784-12.2334L39.7218-12.2334L41.2652-12.2334L42.8086-12.2334L44.3520-12.2334L45.8954-12.2334L47.4388-12.2334L48.9822-12.2334L49.1310-13.6280L48.3654-14.4058L46.8220-14.4058L45.2786-14.4058L43.7352-14.4058L42.1918-14.4058L40.6484-14.4058L39.1050-14.4058L37.5616-14.4058L36.0182-14.4058L34.4748-14.4058L32.9314-14.4058L31.3880-14.4058L29.8446-14.4058L28.3012-14.4058L26.7578-14.4080L25.2152-14.4551L23.6765-14.5739L22.1473-14.7803L20.6366-15.0947L19.1602-15.5423L17.7437-16.1525L16.4261-16.9533L15.2586-17.9598L14.2885-19.1576L13.5293-20.4996L12.9631-21.9343L12.5582-23.4230L12.2823-24.9412L12.1081-26.4745L12.0139-28.0149L11.9836-29.5579L11.9834-31.1013L11.9834-32.6447L11.9834-34.1881L11.9834-35.7315L11.9834-37.2749L11.9834-38.8183L11.9836-40.3617L12.0120-41.9048L12.0965-43.4458L12.2513-44.9812L12.4952-46.5049L12.8534-48.0057L13.3567-49.4639L14.0410-50.8458L14.9353-52.1013L16.0450-53.1705L17.3311-54.0203L18.7327-54.6638L20.2020-55.1339L21.7088-55.4658L23.2357-55.6896L24.7727-55.8282L26.3143-55.8994L27.8576-55.9170L29.4010-55.9170L30.9444-55.9170L32.4878-55.9170L34.0312-55.9170L35.5746-55.9170L37.1180-55.9170L38.6614-55.9170L40.2048-55.9170L41.7482-55.9170L43.2916-55.9170L44.8350-55.9170L45.9879-56.3075L45.9879-57.8509L44.6864-58.0928L43.1430-58.0928L41.5996-58.0928L40.0562-58.0928L38.5128-58.0928L36.9694-58.0928L35.4260-58.0928L33.8826-58.0928L32.3392-58.0928L30.7958-58.0928L29.2524-58.0928ZM86.7325-12.2348L88.2568-12.2600L89.7799-12.3237L91.3001-12.4378L92.8138-12.6176L94.3146-12.8835L95.7909-13.2618L97.2231-13.7821L98.5823-14.4701L99.8362-15.3350L100.9594-16.3638L101.9250-17.5420L102.7188-18.8421L103.3328-20.2364L103.7848-21.6917L104.1057-23.1816L104.3259-24.6899L104.4701-26.2075L104.5574-27.7294L104.6016-29.2532L104.6130-30.7777L104.6130-32.3022L104.6130-33.8267L104.6130-35.3512L104.6130-36.8757L104.6130-38.4002L104.6127-39.9247L104.5940-41.4491L104.5404-42.9726L104.4409-44.4937L104.2807-46.0097L104.0396-47.5147L103.6913-48.9985L103.2043-50.4423L102.5484-51.8173L101.7088-53.0881L100.6977-54.2275L99.5344-55.2111L98.2515-56.0326L96.8724-56.6798L95.4278-57.1650L93.9445-57.5151L92.4399-57.7590L90.9242-57.9216L89.4031-58.0222L87.8796-58.0757L86.3552-58.0927L84.8307-58.0928L83.3062-58.0928L81.7817-58.0928L80.2572-58.0928L78.7327-58.0928L77.2082-58.0928L75.6837-58.0928L74.1592-58.0928L72.6347-58.0928L71.1102-58.0928L69.5857-58.0928L69.0049-57.1490L69.2974-55.9170L70.8219-55.9170L72.3464-55.9170L73.8709-55.9170L75.3954-55.9170L76.9199-55.9170L78.4444-55.9170L79.9689-55.9170L81.4934-55.9170L83.0179-55.9170L84.5424-55.9170L86.0669-55.9170L87.5914-55.9156L89.1152-55.8725L90.6354-55.7602L92.1469-55.5630L93.6408-55.2612L95.1025-54.8302L96.5077-54.2416L97.8201-53.4687L98.9917-52.4961L99.9770-51.3354L100.7602-50.0291L101.3541-48.6262L101.7863-47.1649L102.0870-45.6707L102.2825-44.1591L102.3943-42.6388L102.4387-41.1151L102.4410-39.5906L102.4410-38.0661L102.4410-36.5416L102.4410-35.0171L102.4410-33.4926L102.4410-31.9680L102.4410-30.4435L102.4346-28.9191L102.3763-27.3958L102.2462-25.8770L102.0276-24.3686L101.6992-22.8803L101.2356-21.4287L100.6081-20.0405L99.7915-18.7549L98.7764-17.6201L97.5798-16.6785L96.2483-15.9389L94.8295-15.3835L93.3593-14.9825L91.8603-14.7068L90.3462-14.5312L88.8248-14.4361L87.3007-14.4059L85.7762-14.4058L84.2517-14.4058L82.7272-14.4058L81.2027-14.4058L79.6781-14.4058L78.1536-14.4058L76.6291-14.4058L75.1046-14.4058L73.5801-14.4058L72.0556-14.4058L70.5311-14.4058L69.0066-14.4058L67.4821-14.4058L65.9975-14.3659L65.9975-12.8414L66.9140-12.2334L68.4385-12.2334L69.9630-12.2334L71.4875-12.2334L73.0120-12.2334L74.5365-12.2334L76.0610-12.2334L77.5855-12.2334L79.1100-12.2334L80.6345-12.2334L82.1590-12.2334L83.6835-12.2334L85.2080-12.2334ZM29.2475-17.4654L30.5054-17.4654L31.7634-17.4654L33.0213-17.4654L34.2792-17.4654L35.5371-17.4654L36.7951-17.4654L38.053-17.4654L39.3109-17.4654L40.5688-17.4654L41.8268-17.4654L43.0847-17.4654L44.3426-17.4654L45.6006-17.4654L46.8585-17.4654L48.1164-17.4654L49.1186-18.0112L49.0197-19.2641L48.7583-20.4926L48.2893-21.6572L47.6091-22.7132L46.7642-23.6439L45.8134-24.4669L44.8069-25.2214L43.828-26.0111L42.9083-26.8688L42.054-27.7919L41.2711-28.7762L40.5651-29.8171L39.9412-30.9091L39.4041-32.0465L38.958-33.2224L38.6058-34.4299L38.3499-35.6614L38.1916-36.9093L38.1303-38.1657L38.1294-39.4236L38.1294-40.6816L38.1294-41.9395L38.1294-43.1974L38.1294-44.4553L38.1294-45.7133L38.1294-46.9712L38.1294-48.2291L38.1294-49.487L38.2122-50.7421L38.6964-51.8994L39.6425-52.7189L38.4928-52.8574L37.2348-52.8574L35.9769-52.8574L34.719-52.8574L33.4611-52.8574L32.2031-52.8574L30.9452-52.8574L29.6873-52.8574L28.4293-52.8574L27.1714-52.8531L25.9139-52.8276L24.6578-52.7628L23.4053-52.6481L22.1608-52.4683L20.9324-52.2015L19.7367-51.8164L18.6065-51.2716L17.603-50.5231L16.7995-49.5611L16.2-48.458L15.7678-47.278L15.4642-46.0579L15.2568-44.8176L15.1217-43.5671L15.0417-42.3118L15.0047-41.0545L14.9976-39.7966L14.9976-38.5386L14.9976-37.2807L14.9976-36.0228L14.9976-34.7649L14.9976-33.5069L14.9976-32.249L14.9976-30.9911L14.9986-29.7332L15.0122-28.4753L15.0661-27.2187L15.1734-25.9654L15.35-24.7202L15.6183-23.4916L16.0081-22.2963L16.555-21.1647L17.29-20.1463L18.2435-19.3279L19.34-18.7128L20.5142-18.2622L21.7305-17.9416L22.9689-17.7214L24.2188-17.5793L25.4741-17.4989L26.7316-17.4678L27.9896-17.4654ZM66.8893-17.4695L67.6358-17.4879L68.3818-17.5212L69.1268-17.5713L69.8699-17.6444L70.6105-17.7401L71.3464-17.8662L72.0756-18.0265L72.7946-18.2274L73.4981-18.4771L74.1783-18.7844L74.8249-19.157L75.4227-19.6036L75.9597-20.1218L76.4336-20.6981L76.8368-21.3262L77.1745-21.9918L77.4527-22.6845L77.6786-23.396L77.8602-24.1202L78.0048-24.8527L78.116-25.591L78.201-26.3329L78.2626-27.077L78.3054-27.8225L78.3296-28.5688L78.3399-29.3155L78.3413-30.0622L78.3413-30.809L78.3413-31.5557L78.3413-32.3025L78.3413-33.0492L78.3413-33.796L78.3413-34.5427L78.3413-35.2895L78.3413-36.0362L78.3413-36.7829L78.3413-37.5297L78.3413-38.2764L78.3413-39.0232L78.3413-39.7699L78.3413-40.5167L78.3382-41.2634L78.3245-42.01L78.294-42.7561L78.2472-43.5014L78.1801-44.245L78.0887-44.9861L77.969-45.7231L77.8168-46.4541L77.6249-47.1756L77.3852-47.8827L77.0901-48.5685L76.9991-48.2053L76.9991-47.4586L76.9991-46.7118L76.9991-45.9651L76.9991-45.2184L76.9991-44.4716L76.9991-43.7249L76.9991-42.9781L76.9991-42.2314L76.9991-41.4846L76.9991-40.7379L76.9991-39.9911L76.9991-39.2444L76.9991-38.4977L76.9781-37.7512L76.9415-37.0058L76.8625-36.2632L76.7512-35.5254L76.6154-34.7911L76.4292-34.0681L76.2249-33.3503L75.9766-32.646L75.6991-31.9534L75.3962-31.2708L75.0484-30.6104L74.684-29.9589L74.2783-29.332L73.8491-28.7216L73.3962-28.1278L72.9073-27.5639L72.4047-27.0119L71.8677-26.493L71.3135-25.9932L70.7398-25.5153L70.1452-25.0638L69.5478-24.6159L68.9716-24.1409L68.4181-23.6411L67.8943-23.1089L67.4342-22.5227L67.0039-21.9135L66.6816-21.2399L66.411-20.5471L66.2165-19.8262L66.1008-19.0901L66.0313-18.3501L66.2695-17.6423ZM107.9321-26.8850L108.8682-27.1314L109.7358-27.5627L110.5246-28.1262L111.2307-28.7907L111.8517-29.5354L112.3848-30.3454L112.8272-31.2084L113.1761-32.1132L113.4298-33.0492L113.5881-34.0060L113.6521-34.9738L113.6242-35.9432L113.5031-36.9054L113.2866-37.8508L112.9746-38.7690L112.5685-39.6496L112.0704-40.4817L111.4834-41.2535L110.8101-41.9512L110.0534-42.5572L109.2159-43.0449L108.3042-43.3716L107.6920-43.1142L107.6920-42.1440L107.6920-41.1738L107.6920-40.2035L107.6920-39.2333L107.6920-38.2631L107.6920-37.2929L107.6920-36.3227L107.6920-35.3525L107.6920-34.3822L107.6920-33.4120L107.6920-32.4418L107.6920-31.4716L107.6920-30.5014L107.6920-29.5312L107.6920-28.5609L107.6920-27.5907Z" />
  </g>
 </g>
</svg>
