<?xml version="1.0" encoding="UTF-8"?>
<!--
  PowerLens menu bar battery asset.
  Generated for PowerLens battery status rendering.
-->
<svg version="1.1" xmlns="http://www.w3.org/2000/svg" viewBox="0 0 3300 2200">
 <style>.PowerLensBatteryShape {fill:none;opacity:1.0;stroke:black;stroke-width:0.5}
</style>
 <g id="Symbols">
  <g id="Black-S" transform="matrix(1 0 0 1 2861.82 696)">
   <path class="PowerLensBatteryShape" d="M61.20837-7.33764L66.91667-7.33764C70.90954 -7.33764 73.00949 -9.38577 73.00949 -13.1734L73.00949-19.96309C73.00949 -22.54427 73.66017 -23.69461 75.84886 -25.40606C80.34455 -28.94121 83.1543 -34.07554 83.1543 -39.71493L83.1543-45.77511C83.1543 -47.6549 81.7642 -49.00165 79.81217 -49.00165L75.90798-49.00165L75.90798-59.29839C75.90798 -61.43067 74.07425 -63.17021 71.856 -63.17021C69.66731 -63.17021 67.83357 -61.43067 67.83357 -59.29839L67.83357-49.00165L60.38022-49.00165L60.38022-59.29839C60.38022 -61.43067 58.54642 -63.17021 56.35779 -63.17021C54.13948 -63.17021 52.30574 -61.43067 52.30574 -59.29839L52.30574-49.00165L48.31288-49.00165C46.36078 -49.00165 44.9707 -47.6549 44.9707 -45.77511L44.9707-39.71493C44.9707 -34.07554 47.7805 -28.94121 52.27618 -25.40606C54.46488 -23.69461 55.11555 -22.54427 55.11555 -19.96309L55.11555-13.1734C55.11555 -9.38577 57.21551 -7.33764 61.20837 -7.33764ZM33.6914-66.3086L31.9981-66.2900L30.3059-66.2286L28.6164-66.1149L26.9326-65.9367L25.2591-65.6790L23.6036-65.3243L21.9774-64.8535L20.3968-64.2475L18.8816-63.4929L17.4530-62.5852L16.1268-61.5335L14.9092-60.3575L13.8078-59.0721L12.8442-57.6806L12.0338-56.1946L11.3785-54.6339L10.8671-53.0201L10.4806-51.3718L10.1985-49.7022L10.0014-48.0205L9.8723-46.3321L9.7979-44.6404L9.7675-42.9474L9.7656-41.2540L9.7656-39.5606L9.7656-37.8672L9.7656-36.1738L9.7656-34.4804L9.7656-32.7870L9.7656-31.0936L9.7656-29.4002L9.7668-27.7068L9.7937-26.0137L9.8636-24.3218L9.9871-22.6330L10.1773-20.9505L10.4500-19.2794L10.8247-17.6283L11.3222-16.0102L11.9620-14.4430L12.7575-12.9490L13.7091-11.5493L14.8034-10.2580L16.0173-9.0781L17.3370-8.0181L18.7574-7.0976L20.2651-6.3282L21.8400-5.7074L23.4623-5.2234L25.1154-4.8576L26.7874-4.5912L28.4705-4.4059L30.1597-4.2868L31.8517-4.2214L33.5449-4.1995L35.2383-4.1992L36.9317-4.1992L38.6251-4.1992L40.3185-4.1992L42.0119-4.1992L43.7053-4.1992L45.3987-4.1992L47.0921-4.1992L48.7855-4.1992L50.4789-4.1992L52.1723-4.1992L52.7189-4.9117L52.2641-6.5389L52.1409-8.2258L52.1409-9.9192L52.1409-11.6126L52.1409-13.3060L52.1409-14.9994L52.1394-16.6928L51.9796-18.3594L50.2862-18.3594L48.5928-18.3594L46.8994-18.3594L45.2060-18.3594L43.5126-18.3594L41.8192-18.3594L40.1258-18.3594L38.4324-18.3594L36.7390-18.3594L35.0456-18.3594L33.3522-18.3594L31.6590-18.3719L29.9691-18.4754L28.3007-18.7562L26.7289-19.3716L25.4206-20.4363L24.5428-21.8727L24.1319-23.5121L23.9695-25.1970L23.9261-26.8897L23.9258-28.5831L23.9258-30.2765L23.9258-31.9699L23.9258-33.6633L23.9258-35.3567L23.9258-37.0501L23.9258-38.7435L23.9258-40.4368L23.9258-42.1302L23.9274-43.8236L23.9856-45.5158L24.1799-47.1971L24.6493-48.8201L25.5763-50.2275L26.9034-51.2649L28.4985-51.8181L30.1736-52.0585L31.8646-52.1414L33.5580-52.1484L35.2514-52.1484L36.9447-52.1484L38.6381-52.1484L40.3315-52.1484L42.0249-52.1484L43.7183-52.1484L45.4117-52.1484L47.1051-52.1484L48.3968-52.5501L48.3968-54.2435L48.3968-55.9369L48.3968-57.6303L48.3968-59.3236L48.3968-61.0170L48.3968-62.7104L48.3968-64.4038L48.6017-66.0757L47.2385-66.3086L45.5451-66.3086L43.8518-66.3086L42.1584-66.3086L40.4650-66.3086L38.7716-66.3086L37.0782-66.3086L35.3848-66.3086ZM93.5344-4.2012L95.1840-4.2317L96.8321-4.3055L98.4770-4.4319L100.1156-4.6231L101.7431-4.8930L103.3515-5.2589L104.9297-5.7384L106.4620-6.3486L107.9295-7.1011L109.3129-7.9987L110.5985-9.0316L111.7805-10.1819L112.8522-11.4354L113.7931-12.7898L114.5886-14.2343L115.2367-15.7508L115.7469-17.3194L116.1365-18.9222L116.4244-20.5465L116.6293-22.1834L116.7667-23.8275L116.8497-25.4752L116.8889-27.1245L116.8950-28.7743L116.8950-30.4242L116.8950-32.0741L116.8950-33.7239L116.8950-35.3738L116.8950-37.0236L116.8950-38.6735L116.8950-40.3233L116.8950-41.9732L116.8856-43.6230L116.8406-45.2722L116.7507-46.9195L116.6048-48.5628L116.3897-50.1984L116.0896-51.8205L115.6857-53.4198L115.1588-54.9827L114.4918-56.4910L113.6758-57.9241L112.7132-59.2631L111.6198-60.4977L110.4172-61.6264L109.1148-62.6381L107.7180-63.5148L106.2408-64.2480L104.7016-64.8406L103.1188-65.3048L101.5073-65.6573L99.8781-65.9159L98.2384-66.0975L96.5929-66.2159L94.9444-66.2829L93.2948-66.3079L91.6450-66.3086L89.9951-66.3086L88.3452-66.3086L86.6954-66.3086L85.0455-66.3086L83.3957-66.3086L81.7458-66.3086L80.0960-66.3086L79.8222-65.2312L79.8464-63.5822L79.8464-61.9323L79.8464-60.2825L79.8464-58.6326L79.8464-56.9828L79.8464-55.3329L79.8464-53.6831L79.9616-52.1484L81.6114-52.1484L83.2613-52.1484L84.9111-52.1484L86.5610-52.1484L88.2108-52.1484L89.8607-52.1484L91.5105-52.1484L93.1604-52.1484L94.8102-52.1406L96.4575-52.0548L98.0888-51.8154L99.6477-51.2880L100.9853-50.3337L101.9551-49.0102L102.4507-47.4413L102.6588-45.8056L102.7286-44.1574L102.7340-42.5076L102.7340-40.8578L102.7340-39.2079L102.7340-37.5581L102.7340-35.9082L102.7340-34.2584L102.7340-32.6085L102.7340-30.9586L102.7340-29.3088L102.7340-27.6589L102.7205-26.0092L102.6229-24.3626L102.3586-22.7354L101.7660-21.2016L100.7305-19.9253L99.3423-19.0498L97.7556-18.6098L96.1173-18.4211L94.4688-18.3616L92.8189-18.3594L91.1691-18.3594L89.5192-18.3594L87.8694-18.3594L86.2195-18.3594L84.5697-18.3594L82.9198-18.3594L81.2700-18.3594L79.6201-18.3594L77.9703-18.3594L76.3204-18.3594L75.9902-16.9112L75.9842-15.2614L75.9842-13.6115L75.9842-11.9617L75.9842-10.3118L75.9842-8.6620L75.9256-7.0142L75.5878-5.4023L75.3861-4.1992L77.0359-4.1992L78.6858-4.1992L80.3356-4.1992L81.9855-4.1992L83.6353-4.1992L85.2852-4.1992L86.9350-4.1992L88.5849-4.1992L90.2347-4.1992L91.8846-4.1992ZM34.8706 -24.9512 L35.513 -24.9512 L36.1553 -24.9512 L36.7977 -24.9512 L37.4401 -24.9512 L38.0825 -24.9512 L38.7248 -24.9512 L39.3672 -24.9512 L40.0096 -24.9512 L40.652 -24.9512 L41.2943 -24.9512 L41.9367 -24.9512 L42.5791 -24.9512 L43.2214 -24.9512 L43.8638 -24.9512 L44.5062 -24.9512 L45.1486 -24.9512 L45.7909 -24.9512 L45.6444 -25.4073 L45.183 -25.8541 L44.733 -26.3124 L44.2948 -26.7821 L43.8689 -27.2629 L43.4558 -27.7548 L43.0561 -28.2575 L42.6701 -28.771 L42.2984 -29.2948 L41.9417 -29.8289 L41.6003 -30.373 L41.2749 -30.9268 L40.966 -31.4899 L40.674 -32.0621 L40.3996 -32.6428 L40.1433 -33.2317 L39.9055 -33.8284 L39.6867 -34.4323 L39.4875 -35.0429 L39.3082 -35.6597 L39.1491 -36.282 L39.0106 -36.9092 L38.893 -37.5407 L38.7965 -38.1757 L38.7214 -38.8136 L38.6677 -39.4537 L38.6356 -40.0952 L38.6235 -40.7374 L38.623 -41.3798 L38.623 -42.0221 L38.623 -42.6645 L38.623 -43.3069 L38.623 -43.9493 L38.623 -44.5916 L38.5823 -45.2224 L38.1258 -45.5566 L37.4834 -45.5566 L36.841 -45.5566 L36.1986 -45.5566 L35.5563 -45.5566 L34.9139 -45.5566 L34.2715 -45.5566 L33.6293 -45.5488 L32.9893 -45.5028 L32.3623 -45.3739 L31.7764 -45.1216 L31.2763 -44.7262 L30.9018 -44.21 L30.6702 -43.614 L30.5577 -42.9827 L30.5205 -42.3417 L30.5176 -41.6993 L30.5176 -41.057 L30.5176 -40.4146 L30.5176 -39.7722 L30.5176 -39.1298 L30.5176 -38.4875 L30.5176 -37.8451 L30.5176 -37.2027 L30.5176 -36.5603 L30.5176 -35.918 L30.5176 -35.2756 L30.5176 -34.6332 L30.5176 -33.9909 L30.5176 -33.3485 L30.5176 -32.7061 L30.5176 -32.0637 L30.5176 -31.4214 L30.5176 -30.779 L30.5176 -30.1366 L30.5176 -29.4943 L30.5176 -28.8519 L30.5194 -28.2095 L30.5492 -27.568 L30.6515 -26.9344 L30.8697 -26.3311 L31.2353 -25.8038 L31.7303 -25.3954 L32.3166 -25.1338 L32.9453 -25.0023 L33.5859 -24.9549 L34.2282 -24.9512 ZM124.5890-22.4977L126.0305-22.8801L127.3669-23.5454L128.5820-24.4137L129.6698-25.4376L130.6264-26.5851L131.4472-27.8334L132.1280-29.1634L132.6645-30.5579L133.0543-32.0003L133.2972-33.4746L133.3951-34.9656L133.3519-36.4592L133.1656-37.9417L132.8326-39.3983L132.3522-40.8131L131.7267-42.1700L130.9593-43.4519L130.0547-44.6409L129.0168-45.7154L127.8504-46.6483L126.5598-47.3993L125.1554-47.9030L124.2190-47.5007L124.2190-46.0059L124.2190-44.5111L124.2190-43.0162L124.2190-41.5214L124.2190-40.0266L124.2190-38.5318L124.2190-37.0370L124.2190-35.5422L124.2190-34.0474L124.2190-32.5526L124.2190-31.0578L124.2190-29.5630L124.2190-28.0682L124.2190-26.5734L124.2190-25.0786L124.2190-23.5838Z" />
  </g>
  <g id="Regular-S" transform="matrix(1 0 0 1 1382.41 696)">
   <path class="PowerLensBatteryShape" d="M58.74219-9.53412L63.914-9.53412C66.65028 -9.53412 68.03344 -10.86952 68.03344 -13.48348L68.03344-22.63233C68.03344 -25.04741 69.53688 -26.3544 71.73193 -27.86027C75.67088 -30.61628 77.6855 -34.76452 77.6855 -39.08326L77.6855-44.1407C77.6855 -46.72628 76.30233 -48.00481 73.56611 -48.03326L71.76198-48.06166L71.76198-57.92086C71.76198 -59.62557 70.31865 -60.96101 68.54463 -60.96101C66.74049 -60.96101 65.29716 -59.62557 65.29716 -57.92086L65.29716-48.06166L57.38908-48.06166L57.38908-57.92086C57.38908 -59.62557 55.97586 -60.96101 54.20184 -60.96101C52.3977 -60.96101 50.95437 -59.62557 50.95437 -57.92086L50.95437-48.06166L49.09014-48.03326C46.29375 -48.00481 44.9707 -46.72628 44.9707 -44.1407L44.9707-39.08326C44.9707 -34.76452 46.95525 -30.61628 50.92432 -27.86027C53.11931 -26.3544 54.6228 -25.04741 54.6228 -22.63233L54.6228-13.48348C54.6228 -10.86952 55.97586 -9.53412 58.74219 -9.53412ZM30.6152-61.8164L28.9703-61.8017L27.3262-61.7482L25.6848-61.6401L24.0498-61.4600L22.4277-61.1883L20.8287-60.8036L19.2685-60.2842L17.7679-59.6121L16.3527-58.7753L15.0482-57.7748L13.8754-56.6228L12.8544-55.3343L12.0003-53.9296L11.3151-52.4350L10.7873-50.8776L10.3981-49.2797L10.1244-47.6579L9.9437-46.0230L9.8356-44.3817L9.7816-42.7376L9.7657-41.0927L9.7656-39.4476L9.7656-37.8026L9.7656-36.1576L9.7656-34.5126L9.7656-32.8675L9.7656-31.2225L9.7656-29.5775L9.7786-27.9326L9.8281-26.2883L9.9301-24.6466L10.1025-23.0108L10.3654-21.3872L10.7410-19.7860L11.2517-18.2229L11.9163-16.7190L12.7471-15.3003L13.7432-13.9924L14.8978-12.8226L16.1925-11.8094L17.5995-10.9590L19.0941-10.2736L20.6503-9.7423L22.2468-9.3477L23.8676-9.0677L25.5018-8.8810L27.1428-8.7675L28.7867-8.7096L30.4316-8.6916L32.0766-8.6914L33.7216-8.6914L35.3667-8.6914L37.0117-8.6914L38.6567-8.6914L40.3017-8.6914L41.9468-8.6914L43.5918-8.6914L45.2368-8.6914L46.8818-8.6914L48.5269-8.6914L50.1719-8.6914L51.8169-8.6914L52.3642-9.7891L52.3642-11.4341L52.3642-13.0791L52.3642-14.7242L51.7178-15.7227L50.0727-15.7227L48.4277-15.7227L46.7827-15.7227L45.1377-15.7227L43.4927-15.7227L41.8476-15.7227L40.2026-15.7227L38.5576-15.7227L36.9126-15.7227L35.2675-15.7227L33.6225-15.7227L31.9775-15.7227L30.3325-15.7227L28.6875-15.7316L27.0444-15.8073L25.4089-15.9811L23.7929-16.2854L22.2205-16.7648L20.7412-17.4793L19.4493-18.4907L18.4572-19.7977L17.7637-21.2869L17.3057-22.8657L17.0218-24.4855L16.8654-26.1227L16.8023-27.7664L16.7969-29.4114L16.7969-31.0564L16.7969-32.7014L16.7969-34.3464L16.7969-35.9915L16.7969-37.6365L16.7969-39.2815L16.7969-40.9265L16.8004-42.5715L16.8568-44.2155L17.0035-45.8536L17.2744-47.4756L17.7146-49.0596L18.3819-50.5609L19.3363-51.8963L20.6022-52.9393L22.0716-53.6732L23.6409-54.1623L25.2562-54.4702L26.8916-54.6456L28.5345-54.7241L30.1795-54.7363L31.8245-54.7363L33.4695-54.7363L35.1145-54.7363L36.7596-54.7363L38.4046-54.7363L40.0496-54.7363L41.6946-54.7363L43.3396-54.7363L44.9847-54.7363L46.6297-54.7363L47.4201-55.5909L47.4201-57.2360L47.4201-58.8810L47.4201-60.5260L47.0654-61.8164L45.4204-61.8164L43.7754-61.8164L42.1304-61.8164L40.4853-61.8164L38.8403-61.8164L37.1953-61.8164L35.5503-61.8164L33.9052-61.8164L32.2602-61.8164ZM91.6039-8.6921L93.2197-8.7138L94.8345-8.7754L96.4461-8.8921L98.0509-9.0808L99.6422-9.3607L101.2096-9.7523L102.7378-10.2758L104.2064-10.9483L105.5909-11.7799L106.8675-12.7690L108.0106-13.9095L109.0012-15.1850L109.8328-16.5695L110.5034-18.0389L111.0234-19.5683L111.4106-21.1367L111.6856-22.7289L111.8696-24.3342L111.9821-25.9461L112.0406-27.5610L112.0604-29.1768L112.0610-30.7928L112.0610-32.4088L112.0610-34.0248L112.0610-35.6408L112.0610-37.2567L112.0610-38.8727L112.0610-40.4887L112.0548-42.1047L112.0183-43.7202L111.9360-45.3340L111.7914-46.9434L111.5659-48.5433L111.2389-50.1255L110.7888-51.6770L110.1949-53.1792L109.4424-54.6082L108.5263-55.9382L107.4539-57.1457L106.2445-58.2161L104.9161-59.1346L103.4903-59.8933L101.9917-60.4962L100.4432-60.9564L98.8631-61.2934L97.2644-61.5280L95.6558-61.6803L94.0423-61.7684L92.4269-61.8088L90.8109-61.8164L89.1949-61.8164L87.5790-61.8164L85.9630-61.8164L84.3470-61.8164L82.7310-61.8164L81.1150-61.8164L79.4990-61.8164L77.8831-61.8164L76.2671-61.8164L75.4638-61.0037L75.4638-59.3877L75.4638-57.7717L75.4638-56.1558L75.6603-54.7363L77.2763-54.7363L78.8923-54.7363L80.5083-54.7363L82.1242-54.7363L83.7402-54.7363L85.3562-54.7363L86.9722-54.7363L88.5882-54.7363L90.2042-54.7363L91.8201-54.7363L93.4360-54.7213L95.0497-54.6385L96.6554-54.4593L98.2408-54.1499L99.7806-53.6636L101.2230-52.9401L102.4694-51.9187L103.4151-50.6128L104.0821-49.1431L104.5266-47.5905L104.8041-45.9991L104.9584-44.3908L105.0224-42.7762L105.0290-41.1603L105.0290-39.5443L105.0290-37.9283L105.0290-36.3123L105.0290-34.6964L105.0290-33.0804L105.0290-31.4644L105.0290-29.8484L105.0284-28.2324L104.9880-26.6171L104.8661-25.0059L104.6327-23.4074L104.2480-21.8387L103.6586-20.3359L102.8016-18.9696L101.6407-17.8522L100.2494-17.0356L98.7362-16.4727L97.1640-16.1025L95.5643-15.8763L93.9529-15.7585L92.3374-15.7228L90.7215-15.7227L89.1055-15.7227L87.4895-15.7227L85.8735-15.7227L84.2575-15.7227L82.6416-15.7227L81.0256-15.7227L79.4096-15.7227L77.7936-15.7227L76.1776-15.7227L74.5616-15.7227L72.9457-15.7227L71.3297-15.7227L70.4386-14.9978L70.4386-13.3818L70.4386-11.7658L70.4386-10.1498L70.5962-8.6914L72.2122-8.6914L73.8281-8.6914L75.4441-8.6914L77.0601-8.6914L78.6761-8.6914L80.2921-8.6914L81.9080-8.6914L83.5240-8.6914L85.1400-8.6914L86.7560-8.6914L88.3720-8.6914L89.9880-8.6914ZM29.2023 -20.5078 L30.242 -20.5078 L31.2818 -20.5078 L32.3215 -20.5078 L33.3612 -20.5078 L34.401 -20.5078 L35.4407 -20.5078 L36.4804 -20.5078 L37.5202 -20.5078 L38.5599 -20.5078 L39.5996 -20.5078 L40.6393 -20.5078 L41.6791 -20.5078 L42.7188 -20.5078 L43.7585 -20.5098 L44.7972 -20.5492 L45.8276 -20.6828 L46.8173 -20.9946 L47.6785 -21.5688 L48.3501 -22.3584 L48.7882 -23.2975 L49.0127 -24.311 L48.8873 -25.2403 L48.0247 -25.8206 L47.1499 -26.3825 L46.2914 -26.9687 L45.4646 -27.599 L44.6749 -28.2754 L43.9264 -28.997 L43.2221 -29.7616 L42.5659 -30.5677 L41.9619 -31.4134 L41.4138 -32.2963 L40.9252 -33.2134 L40.4991 -34.161 L40.1381 -35.1354 L39.8446 -36.1321 L39.6198 -37.1466 L39.4646 -38.1741 L39.379 -39.2098 L39.3555 -40.2493 L39.3555 -41.289 L39.3555 -42.3287 L39.3555 -43.3684 L39.3555 -44.4082 L39.3555 -45.4479 L39.3754 -46.4874 L39.5188 -47.5148 L39.8627 -48.4893 L40.4433 -49.3385 L40.267 -49.9512 L39.2272 -49.9512 L38.1875 -49.9512 L37.1478 -49.9512 L36.108 -49.9512 L35.0683 -49.9512 L34.0286 -49.9512 L32.9888 -49.9512 L31.9491 -49.9512 L30.9094 -49.9512 L29.8696 -49.9512 L28.8299 -49.9512 L27.7902 -49.9512 L26.7506 -49.9419 L25.7129 -49.8897 L24.6876 -49.7339 L23.7111 -49.3931 L22.8703 -48.7862 L22.2334 -47.9648 L21.8502 -46.9983 L21.6632 -45.9764 L21.594 -44.9396 L21.5824 -43.9001 L21.582 -42.8604 L21.582 -41.8206 L21.582 -40.7809 L21.582 -39.7412 L21.582 -38.7014 L21.582 -37.6617 L21.582 -36.622 L21.582 -35.5822 L21.582 -34.5425 L21.582 -33.5028 L21.582 -32.4631 L21.582 -31.4233 L21.582 -30.3836 L21.582 -29.3439 L21.582 -28.3041 L21.582 -27.2644 L21.5822 -26.2247 L21.6116 -25.1855 L21.7249 -24.1535 L21.9904 -23.1532 L22.4697 -22.2416 L23.1747 -21.4924 L24.0594 -20.9646 L25.0526 -20.6699 L26.0838 -20.5428 L27.1228 -20.5081 L28.1626 -20.5078 ZM118.0690-25.0294L119.2237-25.3353L120.2940-25.8685L121.2665-26.5651L122.1360-27.3871L122.8993-28.3087L123.5531-29.3110L124.0943-30.3784L124.5195-31.4971L124.8277-32.6535L125.0191-33.8349L125.0959-35.0293L125.0612-36.2257L124.9134-37.4134L124.6491-38.5807L124.2674-39.7150L123.7695-40.8033L123.1576-41.8317L122.4350-42.7856L121.6048-43.6473L120.6706-44.3947L119.6362-44.9950L118.5103-45.3958L117.7730-45.0571L117.7730-43.8598L117.7730-42.6625L117.7730-41.4651L117.7730-40.2678L117.7730-39.0705L117.7730-37.8731L117.7730-36.6758L117.7730-35.4785L117.7730-34.2812L117.7730-33.0838L117.7730-31.8865L117.7730-30.6892L117.7730-29.4918L117.7730-28.2945L117.7730-27.0972L117.7730-25.8999Z" />
  </g>
  <g id="Ultralight-S" transform="matrix(1 0 0 1 498.001 696)">
   <path class="PowerLensBatteryShape" d="M53.3478-8.40215L61.74073-8.40215C63.60501 -8.40215 64.65695 -9.5071 64.65695 -11.38877L64.65695-19.40228C64.65695 -22.47528 65.59915 -24.16667 68.16479 -26.10912C71.83881 -28.94384 73.9165 -33.27056 73.9165 -37.99321L73.9165-48.42509C73.9165 -50.18682 72.8349 -51.25793 71.08925 -51.26014L67.18817-51.26234L67.18817-59.86107C67.18817 -60.96537 66.30972 -61.92311 65.11015 -61.92311C63.93802 -61.92311 63.00026 -60.96537 63.00026 -59.86107L63.00026-51.26234L51.9718-51.26234L51.9718-59.86107C51.9718 -60.96537 51.06598 -61.92311 49.92573 -61.92311C48.7536 -61.92311 47.81584 -60.96537 47.81584 -59.86107L47.81584-51.26234L43.8806-51.26014C42.21946 -51.25793 41.2017 -50.18682 41.2017 -48.42509L41.2017-37.99321C41.2017 -33.27056 43.33647 -28.94384 46.98305 -26.10912C49.57841 -24.16667 50.46124 -22.47528 50.46124 -19.40228L50.46124-11.38877C50.46124 -9.5071 51.51096 -8.40215 53.3478 -8.40215ZM27.7090-58.0928L26.1657-58.0743L24.6237-58.0124L23.0849-57.8946L21.5534-57.7045L20.0366-57.4209L18.5473-57.0177L17.1068-56.4660L15.7448-55.7423L14.4943-54.8399L13.3778-53.7759L12.4099-52.5753L11.6159-51.2532L11.0012-49.8385L10.5482-48.3638L10.2281-46.8544L10.0116-45.3264L9.8747-43.7893L9.7980-42.2478L9.7675-40.7048L9.7656-39.1614L9.7656-37.6180L9.7656-36.0746L9.7656-34.5312L9.7656-32.9878L9.7656-31.4444L9.7687-29.9010L9.7984-28.3579L9.8677-26.8161L9.9892-25.2776L10.1804-23.7463L10.4649-22.2296L10.8725-20.7416L11.4373-19.3063L12.1854-17.9578L13.1199-16.7312L14.2149-15.6451L15.4445-14.7143L16.7910-13.9623L18.2227-13.3885L19.7075-12.9692L21.2220-12.6738L22.7521-12.4731L24.2901-12.3443L25.8316-12.2700L27.3746-12.2373L28.9180-12.2334L30.4614-12.2334L32.0048-12.2334L33.5482-12.2334L35.0916-12.2334L36.6350-12.2334L38.1784-12.2334L39.7218-12.2334L41.2652-12.2334L42.8086-12.2334L44.3520-12.2334L45.8954-12.2334L47.4388-12.2334L48.9822-12.2334L49.1310-13.6280L48.3654-14.4058L46.8220-14.4058L45.2786-14.4058L43.7352-14.4058L42.1918-14.4058L40.6484-14.4058L39.1050-14.4058L37.5616-14.4058L36.0182-14.4058L34.4748-14.4058L32.9314-14.4058L31.3880-14.4058L29.8446-14.4058L28.3012-14.4058L26.7578-14.4080L25.2152-14.4551L23.6765-14.5739L22.1473-14.7803L20.6366-15.0947L19.1602-15.5423L17.7437-16.1525L16.4261-16.9533L15.2586-17.9598L14.2885-19.1576L13.5293-20.4996L12.9631-21.9343L12.5582-23.4230L12.2823-24.9412L12.1081-26.4745L12.0139-28.0149L11.9836-29.5579L11.9834-31.1013L11.9834-32.6447L11.9834-34.1881L11.9834-35.7315L11.9834-37.2749L11.9834-38.8183L11.9836-40.3617L12.0120-41.9048L12.0965-43.4458L12.2513-44.9812L12.4952-46.5049L12.8534-48.0057L13.3567-49.4639L14.0410-50.8458L14.9353-52.1013L16.0450-53.1705L17.3311-54.0203L18.7327-54.6638L20.2020-55.1339L21.7088-55.4658L23.2357-55.6896L24.7727-55.8282L26.3143-55.8994L27.8576-55.9170L29.4010-55.9170L30.9444-55.9170L32.4878-55.9170L34.0312-55.9170L35.5746-55.9170L37.1180-55.9170L38.6614-55.9170L40.2048-55.9170L41.7482-55.9170L43.2916-55.9170L44.8350-55.9170L45.9879-56.3075L45.9879-57.8509L44.6864-58.0928L43.1430-58.0928L41.5996-58.0928L40.0562-58.0928L38.5128-58.0928L36.9694-58.0928L35.4260-58.0928L33.8826-58.0928L32.3392-58.0928L30.7958-58.0928L29.2524-58.0928ZM86.7325-12.2348L88.2568-12.2600L89.7799-12.3237L91.3001-12.4378L92.8138-12.6176L94.3146-12.8835L95.7909-13.2618L97.2231-13.7821L98.5823-14.4701L99.8362-15.3350L100.9594-16.3638L101.9250-17.5420L102.7188-18.8421L103.3328-20.2364L103.7848-21.6917L104.1057-23.1816L104.3259-24.6899L104.4701-26.2075L104.5574-27.7294L104.6016-29.2532L104.6130-30.7777L104.6130-32.3022L104.6130-33.8267L104.6130-35.3512L104.6130-36.8757L104.6130-38.4002L104.6127-39.9247L104.5940-41.4491L104.5404-42.9726L104.4409-44.4937L104.2807-46.0097L104.0396-47.5147L103.6913-48.9985L103.2043-50.4423L102.5484-51.8173L101.7088-53.0881L100.6977-54.2275L99.5344-55.2111L98.2515-56.0326L96.8724-56.6798L95.4278-57.1650L93.9445-57.5151L92.4399-57.7590L90.9242-57.9216L89.4031-58.0222L87.8796-58.0757L86.3552-58.0927L84.8307-58.0928L83.3062-58.0928L81.7817-58.0928L80.2572-58.0928L78.7327-58.0928L77.2082-58.0928L75.6837-58.0928L74.1592-58.0928L72.6347-58.0928L71.1102-58.0928L69.5857-58.0928L69.0049-57.1490L69.2974-55.9170L70.8219-55.9170L72.3464-55.9170L73.8709-55.9170L75.3954-55.9170L76.9199-55.9170L78.4444-55.9170L79.9689-55.9170L81.4934-55.9170L83.0179-55.9170L84.5424-55.9170L86.0669-55.9170L87.5914-55.9156L89.1152-55.8725L90.6354-55.7602L92.1469-55.5630L93.6408-55.2612L95.1025-54.8302L96.5077-54.2416L97.8201-53.4687L98.9917-52.4961L99.9770-51.3354L100.7602-50.0291L101.3541-48.6262L101.7863-47.1649L102.0870-45.6707L102.2825-44.1591L102.3943-42.6388L102.4387-41.1151L102.4410-39.5906L102.4410-38.0661L102.4410-36.5416L102.4410-35.0171L102.4410-33.4926L102.4410-31.9680L102.4410-30.4435L102.4346-28.9191L102.3763-27.3958L102.2462-25.8770L102.0276-24.3686L101.6992-22.8803L101.2356-21.4287L100.6081-20.0405L99.7915-18.7549L98.7764-17.6201L97.5798-16.6785L96.2483-15.9389L94.8295-15.3835L93.3593-14.9825L91.8603-14.7068L90.3462-14.5312L88.8248-14.4361L87.3007-14.4059L85.7762-14.4058L84.2517-14.4058L82.7272-14.4058L81.2027-14.4058L79.6781-14.4058L78.1536-14.4058L76.6291-14.4058L75.1046-14.4058L73.5801-14.4058L72.0556-14.4058L70.5311-14.4058L69.0066-14.4058L67.4821-14.4058L65.9975-14.3659L65.9975-12.8414L66.9140-12.2334L68.4385-12.2334L69.9630-12.2334L71.4875-12.2334L73.0120-12.2334L74.5365-12.2334L76.0610-12.2334L77.5855-12.2334L79.1100-12.2334L80.6345-12.2334L82.1590-12.2334L83.6835-12.2334L85.2080-12.2334ZM29.2475 -17.4654 L30.3875 -17.4654 L31.5275 -17.4654 L32.6675 -17.4685 L33.8072 -17.4892 L34.9457 -17.5467 L36.0808 -17.65 L37.2092 -17.8103 L38.3251 -18.0411 L39.415 -18.3726 L40.4603 -18.8251 L41.4176 -19.4407 L42.2419 -20.2242 L42.91 -21.1451 L43.4317 -22.1574 L43.8123 -23.2313 L44.0973 -24.3346 L44.2918 -25.4576 L43.5668 -26.2519 L42.7461 -27.0422 L41.9792 -27.885 L41.2702 -28.7775 L40.6259 -29.7179 L40.0536 -30.7037 L39.5514 -31.7266 L39.1223 -32.7821 L38.7687 -33.865 L38.4923 -34.97 L38.2945 -36.0919 L38.1759 -37.2249 L38.1301 -38.3638 L38.1294 -39.5038 L38.1294 -40.6438 L38.1294 -41.7838 L38.1294 -42.9238 L38.1294 -44.0638 L38.1294 -45.2038 L38.1294 -46.3438 L38.1294 -47.4838 L38.1294 -48.6238 L38.1446 -49.7633 L38.2553 -50.8927 L38.7128 -51.9368 L38.0288 -52.3283 L36.9104 -52.5471 L35.7807 -52.6989 L34.6446 -52.792 L33.5058 -52.8418 L32.3659 -52.8574 L31.2259 -52.8574 L30.0859 -52.8574 L28.9459 -52.8574 L27.8059 -52.8574 L26.6659 -52.8468 L25.5266 -52.8113 L24.3889 -52.7415 L23.2548 -52.6288 L22.1276 -52.4618 L21.0132 -52.225 L19.9221 -51.8968 L18.8763 -51.4431 L17.9244 -50.8165 L17.1288 -50.0048 L16.5035 -49.0564 L16.0291 -48.0229 L15.6779 -46.9402 L15.4233 -45.8297 L15.2436 -44.7043 L15.1223 -43.571 L15.0484 -42.4335 L15.0099 -41.2941 L14.9986 -40.1542 L14.9976 -39.0142 L14.9976 -37.8742 L14.9976 -36.7342 L14.9976 -35.5942 L14.9976 -34.4542 L14.9976 -33.3142 L14.9976 -32.1742 L14.9976 -31.0342 L14.9976 -29.8942 L15.0082 -28.7543 L15.046 -27.6149 L15.1259 -26.4779 L15.2574 -25.3458 L15.4545 -24.2236 L15.7355 -23.1201 L16.1237 -22.0501 L16.6437 -21.038 L17.3182 -20.1215 L18.1787 -19.3742 L19.1643 -18.8021 L20.2186 -18.3705 L21.3113 -18.0492 L22.4266 -17.8163 L23.5545 -17.6541 L24.6894 -17.5486 L25.8277 -17.4895 L26.9675 -17.4667 L28.1075 -17.4654 ZM107.9321-26.8850L108.8682-27.1314L109.7358-27.5627L110.5246-28.1262L111.2307-28.7907L111.8517-29.5354L112.3848-30.3454L112.8272-31.2084L113.1761-32.1132L113.4298-33.0492L113.5881-34.0060L113.6521-34.9738L113.6242-35.9432L113.5031-36.9054L113.2866-37.8508L112.9746-38.7690L112.5685-39.6496L112.0704-40.4817L111.4834-41.2535L110.8101-41.9512L110.0534-42.5572L109.2159-43.0449L108.3042-43.3716L107.6920-43.1142L107.6920-42.1440L107.6920-41.1738L107.6920-40.2035L107.6920-39.2333L107.6920-38.2631L107.6920-37.2929L107.6920-36.3227L107.6920-35.3525L107.6920-34.3822L107.6920-33.4120L107.6920-32.4418L107.6920-31.4716L107.6920-30.5014L107.6920-29.5312L107.6920-28.5609L107.6920-27.5907Z" />
  </g>
 </g>
</svg>
