<?xml version="1.0" encoding="UTF-8"?>
<!--
  PowerLens menu bar battery asset.
  Generated for PowerLens battery status rendering.
-->
<svg version="1.1" xmlns="http://www.w3.org/2000/svg" viewBox="0 0 3300 2200">
 <style>.PowerLensBatteryShape {fill:none;opacity:1.0;stroke:black;stroke-width:0.5}
</style>
 <g id="Symbols">
  <g id="Black-S" transform="matrix(1 0 0 1 2861.82 696)">
   <path class="PowerLensBatteryShape" d="M61.20837-7.33764L66.91667-7.33764C70.90954 -7.33764 73.00949 -9.38577 73.00949 -13.1734L73.00949-19.96309C73.00949 -22.54427 73.66017 -23.69461 75.84886 -25.40606C80.34455 -28.94121 83.1543 -34.07554 83.1543 -39.71493L83.1543-45.77511C83.1543 -47.6549 81.7642 -49.00165 79.81217 -49.00165L75.90798-49.00165L75.90798-59.29839C75.90798 -61.43067 74.07425 -63.17021 71.856 -63.17021C69.66731 -63.17021 67.83357 -61.43067 67.83357 -59.29839L67.83357-49.00165L60.38022-49.00165L60.38022-59.29839C60.38022 -61.43067 58.54642 -63.17021 56.35779 -63.17021C54.13948 -63.17021 52.30574 -61.43067 52.30574 -59.29839L52.30574-49.00165L48.31288-49.00165C46.36078 -49.00165 44.9707 -47.6549 44.9707 -45.77511L44.9707-39.71493C44.9707 -34.07554 47.7805 -28.94121 52.27618 -25.40606C54.46488 -23.69461 55.11555 -22.54427 55.11555 -19.96309L55.11555-13.1734C55.11555 -9.38577 57.21551 -7.33764 61.20837 -7.33764ZM33.6914-66.3086L31.9981-66.2900L30.3059-66.2286L28.6164-66.1149L26.9326-65.9367L25.2591-65.6790L23.6036-65.3243L21.9774-64.8535L20.3968-64.2475L18.8816-63.4929L17.4530-62.5852L16.1268-61.5335L14.9092-60.3575L13.8078-59.0721L12.8442-57.6806L12.0338-56.1946L11.3785-54.6339L10.8671-53.0201L10.4806-51.3718L10.1985-49.7022L10.0014-48.0205L9.8723-46.3321L9.7979-44.6404L9.7675-42.9474L9.7656-41.2540L9.7656-39.5606L9.7656-37.8672L9.7656-36.1738L9.7656-34.4804L9.7656-32.7870L9.7656-31.0936L9.7656-29.4002L9.7668-27.7068L9.7937-26.0137L9.8636-24.3218L9.9871-22.6330L10.1773-20.9505L10.4500-19.2794L10.8247-17.6283L11.3222-16.0102L11.9620-14.4430L12.7575-12.9490L13.7091-11.5493L14.8034-10.2580L16.0173-9.0781L17.3370-8.0181L18.7574-7.0976L20.2651-6.3282L21.8400-5.7074L23.4623-5.2234L25.1154-4.8576L26.7874-4.5912L28.4705-4.4059L30.1597-4.2868L31.8517-4.2214L33.5449-4.1995L35.2383-4.1992L36.9317-4.1992L38.6251-4.1992L40.3185-4.1992L42.0119-4.1992L43.7053-4.1992L45.3987-4.1992L47.0921-4.1992L48.7855-4.1992L50.4789-4.1992L52.1723-4.1992L52.7189-4.9117L52.2641-6.5389L52.1409-8.2258L52.1409-9.9192L52.1409-11.6126L52.1409-13.3060L52.1409-14.9994L52.1394-16.6928L51.9796-18.3594L50.2862-18.3594L48.5928-18.3594L46.8994-18.3594L45.2060-18.3594L43.5126-18.3594L41.8192-18.3594L40.1258-18.3594L38.4324-18.3594L36.7390-18.3594L35.0456-18.3594L33.3522-18.3594L31.6590-18.3719L29.9691-18.4754L28.3007-18.7562L26.7289-19.3716L25.4206-20.4363L24.5428-21.8727L24.1319-23.5121L23.9695-25.1970L23.9261-26.8897L23.9258-28.5831L23.9258-30.2765L23.9258-31.9699L23.9258-33.6633L23.9258-35.3567L23.9258-37.0501L23.9258-38.7435L23.9258-40.4368L23.9258-42.1302L23.9274-43.8236L23.9856-45.5158L24.1799-47.1971L24.6493-48.8201L25.5763-50.2275L26.9034-51.2649L28.4985-51.8181L30.1736-52.0585L31.8646-52.1414L33.5580-52.1484L35.2514-52.1484L36.9447-52.1484L38.6381-52.1484L40.3315-52.1484L42.0249-52.1484L43.7183-52.1484L45.4117-52.1484L47.1051-52.1484L48.3968-52.5501L48.3968-54.2435L48.3968-55.9369L48.3968-57.6303L48.3968-59.3236L48.3968-61.0170L48.3968-62.7104L48.3968-64.4038L48.6017-66.0757L47.2385-66.3086L45.5451-66.3086L43.8518-66.3086L42.1584-66.3086L40.4650-66.3086L38.7716-66.3086L37.0782-66.3086L35.3848-66.3086ZM93.5344-4.2012L95.1840-4.2317L96.8321-4.3055L98.4770-4.4319L100.1156-4.6231L101.7431-4.8930L103.3515-5.2589L104.9297-5.7384L106.4620-6.3486L107.9295-7.1011L109.3129-7.9987L110.5985-9.0316L111.7805-10.1819L112.8522-11.4354L113.7931-12.7898L114.5886-14.2343L115.2367-15.7508L115.7469-17.3194L116.1365-18.9222L116.4244-20.5465L116.6293-22.1834L116.7667-23.8275L116.8497-25.4752L116.8889-27.1245L116.8950-28.7743L116.8950-30.4242L116.8950-32.0741L116.8950-33.7239L116.8950-35.3738L116.8950-37.0236L116.8950-38.6735L116.8950-40.3233L116.8950-41.9732L116.8856-43.6230L116.8406-45.2722L116.7507-46.9195L116.6048-48.5628L116.3897-50.1984L116.0896-51.8205L115.6857-53.4198L115.1588-54.9827L114.4918-56.4910L113.6758-57.9241L112.7132-59.2631L111.6198-60.4977L110.4172-61.6264L109.1148-62.6381L107.7180-63.5148L106.2408-64.2480L104.7016-64.8406L103.1188-65.3048L101.5073-65.6573L99.8781-65.9159L98.2384-66.0975L96.5929-66.2159L94.9444-66.2829L93.2948-66.3079L91.6450-66.3086L89.9951-66.3086L88.3452-66.3086L86.6954-66.3086L85.0455-66.3086L83.3957-66.3086L81.7458-66.3086L80.0960-66.3086L79.8222-65.2312L79.8464-63.5822L79.8464-61.9323L79.8464-60.2825L79.8464-58.6326L79.8464-56.9828L79.8464-55.3329L79.8464-53.6831L79.9616-52.1484L81.6114-52.1484L83.2613-52.1484L84.9111-52.1484L86.5610-52.1484L88.2108-52.1484L89.8607-52.1484L91.5105-52.1484L93.1604-52.1484L94.8102-52.1406L96.4575-52.0548L98.0888-51.8154L99.6477-51.2880L100.9853-50.3337L101.9551-49.0102L102.4507-47.4413L102.6588-45.8056L102.7286-44.1574L102.7340-42.5076L102.7340-40.8578L102.7340-39.2079L102.7340-37.5581L102.7340-35.9082L102.7340-34.2584L102.7340-32.6085L102.7340-30.9586L102.7340-29.3088L102.7340-27.6589L102.7205-26.0092L102.6229-24.3626L102.3586-22.7354L101.7660-21.2016L100.7305-19.9253L99.3423-19.0498L97.7556-18.6098L96.1173-18.4211L94.4688-18.3616L92.8189-18.3594L91.1691-18.3594L89.5192-18.3594L87.8694-18.3594L86.2195-18.3594L84.5697-18.3594L82.9198-18.3594L81.2700-18.3594L79.6201-18.3594L77.9703-18.3594L76.3204-18.3594L75.9902-16.9112L75.9842-15.2614L75.9842-13.6115L75.9842-11.9617L75.9842-10.3118L75.9842-8.6620L75.9256-7.0142L75.5878-5.4023L75.3861-4.1992L77.0359-4.1992L78.6858-4.1992L80.3356-4.1992L81.9855-4.1992L83.6353-4.1992L85.2852-4.1992L86.9350-4.1992L88.5849-4.1992L90.2347-4.1992L91.8846-4.1992ZM33.8379-45.5566L33.1904-45.5325L32.5498-45.4379L31.9377-45.2291L31.4001-44.8710L30.9803-44.3798L30.7092-43.7932L30.5715-43.1607L30.5216-42.5148L30.5176-41.8667L30.5176-41.2186L30.5176-40.5705L30.5176-39.9224L30.5176-39.2743L30.5176-38.6262L30.5176-37.9781L30.5176-37.3300L30.5176-36.6819L30.5176-36.0338L30.5176-35.3856L30.5176-34.7375L30.5176-34.0894L30.5176-33.4413L30.5176-32.7932L30.5176-32.1451L30.5176-31.4970L30.5176-30.8489L30.5176-30.2008L30.5176-29.5527L30.5176-28.9046L30.5176-28.2564L30.5430-27.6090L30.6396-26.9687L30.8517-26.3578L31.2133-25.8224L31.7071-25.4059L32.2954-25.1383L32.9284-25.0031L33.5744-24.9548L34.2225-24.9512L34.8706-24.9512L35.5187-24.9512L36.1668-24.9512L36.8150-24.9512L37.4631-24.9512L38.1112-24.9512L38.7593-24.9512L39.4074-24.9512L40.0555-24.9512L40.7036-24.9512L41.3517-24.9512L41.9998-24.9512L42.6479-24.9512L43.2961-24.9512L43.9442-24.9512L44.5923-24.9512L45.2404-24.9512L45.8885-24.9512L45.8414-25.2204L45.3712-25.6664L44.9123-26.1241L44.4654-26.5934L44.0307-27.0742L43.6089-27.5662L43.2005-28.0694L42.8059-28.5835L42.4257-29.1083L42.0604-29.6437L41.7107-30.1893L41.3770-30.7448L41.0599-31.3101L40.7599-31.8845L40.4776-32.4679L40.2136-33.0598L39.9683-33.6596L39.7422-34.2670L39.5359-34.8814L39.3498-35.5022L39.1842-36.1287L39.0395-36.7604L38.9160-37.3966L38.8139-38.0366L38.7336-38.6797L38.6750-39.3251L38.6384-39.9722L38.6236-40.6201L38.6230-41.2682L38.6230-41.9163L38.6230-42.5644L38.6230-43.2125L38.6230-43.8606L38.6230-44.5087L38.6230-45.1568L38.3747-45.5566L37.7266-45.5566L37.0784-45.5566L36.4303-45.5566L35.7822-45.5566L35.1341-45.5566L34.4860-45.5566ZM92.8950-24.9515L93.5131-24.9791L94.1242-25.0731L94.7088-25.2722L95.2267-25.6076L95.6392-26.0665L95.9178-26.6171L96.0692-27.2162L96.1321-27.8315L96.1426-28.4502L96.1426-29.0690L96.1426-29.6878L96.1426-30.3066L96.1426-30.9254L96.1426-31.5442L96.1426-32.1630L96.1426-32.7818L96.1426-33.4007L96.1426-34.0195L96.1426-34.6383L96.1426-35.2571L96.1426-35.8759L96.1426-36.4947L96.1426-37.1135L96.1426-37.7323L96.1426-38.3511L96.1426-38.9700L96.1426-39.5888L96.1426-40.2076L96.1426-40.8264L96.1426-41.4452L96.1426-42.0640L96.1318-42.6827L96.0682-43.2979L95.9157-43.8967L95.6356-44.4466L95.2218-44.9043L94.7031-45.2383L94.1180-45.4362L93.5067-45.5293L92.8887-45.5564L92.2699-45.5566L91.6510-45.5566L91.0322-45.5566L90.4134-45.5566L89.7946-45.5566L89.5020-45.2304L89.5020-44.6116L89.5020-43.9928L89.5020-43.3740L89.5020-42.7551L89.5020-42.1363L89.5020-41.5175L89.5020-40.8987L89.4966-40.2799L89.4721-39.6616L89.4274-39.0445L89.3628-38.4291L89.2784-37.8161L89.1743-37.2061L89.0508-36.5998L88.9079-35.9977L88.7461-35.4005L88.5657-34.8086L88.3669-34.2226L88.1502-33.6430L87.9160-33.0702L87.6646-32.5048L87.3965-31.9471L87.1122-31.3975L86.8123-30.8563L86.4971-30.3238L86.1672-29.8002L85.8231-29.2860L85.4651-28.7812L85.0939-28.2862L84.7096-27.8011L84.3130-27.3262L83.9045-26.8613L83.4846-26.4068L83.0537-25.9628L82.6119-25.5295L82.1600-25.1068L82.3752-24.9512L82.9940-24.9512L83.6129-24.9512L84.2317-24.9512L84.8505-24.9512L85.4693-24.9512L86.0881-24.9512L86.7069-24.9512L87.3257-24.9512L87.9445-24.9512L88.5633-24.9512L89.1822-24.9512L89.8010-24.9512L90.4198-24.9512L91.0386-24.9512L91.6574-24.9512L92.2762-24.9512ZM124.5890-22.4977L126.0305-22.8801L127.3669-23.5454L128.5820-24.4137L129.6698-25.4376L130.6264-26.5851L131.4472-27.8334L132.1280-29.1634L132.6645-30.5579L133.0543-32.0003L133.2972-33.4746L133.3951-34.9656L133.3519-36.4592L133.1656-37.9417L132.8326-39.3983L132.3522-40.8131L131.7267-42.1700L130.9593-43.4519L130.0547-44.6409L129.0168-45.7154L127.8504-46.6483L126.5598-47.3993L125.1554-47.9030L124.2190-47.5007L124.2190-46.0059L124.2190-44.5111L124.2190-43.0162L124.2190-41.5214L124.2190-40.0266L124.2190-38.5318L124.2190-37.0370L124.2190-35.5422L124.2190-34.0474L124.2190-32.5526L124.2190-31.0578L124.2190-29.5630L124.2190-28.0682L124.2190-26.5734L124.2190-25.0786L124.2190-23.5838Z" />
  </g>
  <g id="Regular-S" transform="matrix(1 0 0 1 1382.41 696)">
   <path class="PowerLensBatteryShape" d="M58.74219-9.53412L63.914-9.53412C66.65028 -9.53412 68.03344 -10.86952 68.03344 -13.48348L68.03344-22.63233C68.03344 -25.04741 69.53688 -26.3544 71.73193 -27.86027C75.67088 -30.61628 77.6855 -34.76452 77.6855 -39.08326L77.6855-44.1407C77.6855 -46.72628 76.30233 -48.00481 73.56611 -48.03326L71.76198-48.06166L71.76198-57.92086C71.76198 -59.62557 70.31865 -60.96101 68.54463 -60.96101C66.74049 -60.96101 65.29716 -59.62557 65.29716 -57.92086L65.29716-48.06166L57.38908-48.06166L57.38908-57.92086C57.38908 -59.62557 55.97586 -60.96101 54.20184 -60.96101C52.3977 -60.96101 50.95437 -59.62557 50.95437 -57.92086L50.95437-48.06166L49.09014-48.03326C46.29375 -48.00481 44.9707 -46.72628 44.9707 -44.1407L44.9707-39.08326C44.9707 -34.76452 46.95525 -30.61628 50.92432 -27.86027C53.11931 -26.3544 54.6228 -25.04741 54.6228 -22.63233L54.6228-13.48348C54.6228 -10.86952 55.97586 -9.53412 58.74219 -9.53412ZM30.6152-61.8164L28.9703-61.8017L27.3262-61.7482L25.6848-61.6401L24.0498-61.4600L22.4277-61.1883L20.8287-60.8036L19.2685-60.2842L17.7679-59.6121L16.3527-58.7753L15.0482-57.7748L13.8754-56.6228L12.8544-55.3343L12.0003-53.9296L11.3151-52.4350L10.7873-50.8776L10.3981-49.2797L10.1244-47.6579L9.9437-46.0230L9.8356-44.3817L9.7816-42.7376L9.7657-41.0927L9.7656-39.4476L9.7656-37.8026L9.7656-36.1576L9.7656-34.5126L9.7656-32.8675L9.7656-31.2225L9.7656-29.5775L9.7786-27.9326L9.8281-26.2883L9.9301-24.6466L10.1025-23.0108L10.3654-21.3872L10.7410-19.7860L11.2517-18.2229L11.9163-16.7190L12.7471-15.3003L13.7432-13.9924L14.8978-12.8226L16.1925-11.8094L17.5995-10.9590L19.0941-10.2736L20.6503-9.7423L22.2468-9.3477L23.8676-9.0677L25.5018-8.8810L27.1428-8.7675L28.7867-8.7096L30.4316-8.6916L32.0766-8.6914L33.7216-8.6914L35.3667-8.6914L37.0117-8.6914L38.6567-8.6914L40.3017-8.6914L41.9468-8.6914L43.5918-8.6914L45.2368-8.6914L46.8818-8.6914L48.5269-8.6914L50.1719-8.6914L51.8169-8.6914L52.3642-9.7891L52.3642-11.4341L52.3642-13.0791L52.3642-14.7242L51.7178-15.7227L50.0727-15.7227L48.4277-15.7227L46.7827-15.7227L45.1377-15.7227L43.4927-15.7227L41.8476-15.7227L40.2026-15.7227L38.5576-15.7227L36.9126-15.7227L35.2675-15.7227L33.6225-15.7227L31.9775-15.7227L30.3325-15.7227L28.6875-15.7316L27.0444-15.8073L25.4089-15.9811L23.7929-16.2854L22.2205-16.7648L20.7412-17.4793L19.4493-18.4907L18.4572-19.7977L17.7637-21.2869L17.3057-22.8657L17.0218-24.4855L16.8654-26.1227L16.8023-27.7664L16.7969-29.4114L16.7969-31.0564L16.7969-32.7014L16.7969-34.3464L16.7969-35.9915L16.7969-37.6365L16.7969-39.2815L16.7969-40.9265L16.8004-42.5715L16.8568-44.2155L17.0035-45.8536L17.2744-47.4756L17.7146-49.0596L18.3819-50.5609L19.3363-51.8963L20.6022-52.9393L22.0716-53.6732L23.6409-54.1623L25.2562-54.4702L26.8916-54.6456L28.5345-54.7241L30.1795-54.7363L31.8245-54.7363L33.4695-54.7363L35.1145-54.7363L36.7596-54.7363L38.4046-54.7363L40.0496-54.7363L41.6946-54.7363L43.3396-54.7363L44.9847-54.7363L46.6297-54.7363L47.4201-55.5909L47.4201-57.2360L47.4201-58.8810L47.4201-60.5260L47.0654-61.8164L45.4204-61.8164L43.7754-61.8164L42.1304-61.8164L40.4853-61.8164L38.8403-61.8164L37.1953-61.8164L35.5503-61.8164L33.9052-61.8164L32.2602-61.8164ZM91.6039-8.6921L93.2197-8.7138L94.8345-8.7754L96.4461-8.8921L98.0509-9.0808L99.6422-9.3607L101.2096-9.7523L102.7378-10.2758L104.2064-10.9483L105.5909-11.7799L106.8675-12.7690L108.0106-13.9095L109.0012-15.1850L109.8328-16.5695L110.5034-18.0389L111.0234-19.5683L111.4106-21.1367L111.6856-22.7289L111.8696-24.3342L111.9821-25.9461L112.0406-27.5610L112.0604-29.1768L112.0610-30.7928L112.0610-32.4088L112.0610-34.0248L112.0610-35.6408L112.0610-37.2567L112.0610-38.8727L112.0610-40.4887L112.0548-42.1047L112.0183-43.7202L111.9360-45.3340L111.7914-46.9434L111.5659-48.5433L111.2389-50.1255L110.7888-51.6770L110.1949-53.1792L109.4424-54.6082L108.5263-55.9382L107.4539-57.1457L106.2445-58.2161L104.9161-59.1346L103.4903-59.8933L101.9917-60.4962L100.4432-60.9564L98.8631-61.2934L97.2644-61.5280L95.6558-61.6803L94.0423-61.7684L92.4269-61.8088L90.8109-61.8164L89.1949-61.8164L87.5790-61.8164L85.9630-61.8164L84.3470-61.8164L82.7310-61.8164L81.1150-61.8164L79.4990-61.8164L77.8831-61.8164L76.2671-61.8164L75.4638-61.0037L75.4638-59.3877L75.4638-57.7717L75.4638-56.1558L75.6603-54.7363L77.2763-54.7363L78.8923-54.7363L80.5083-54.7363L82.1242-54.7363L83.7402-54.7363L85.3562-54.7363L86.9722-54.7363L88.5882-54.7363L90.2042-54.7363L91.8201-54.7363L93.4360-54.7213L95.0497-54.6385L96.6554-54.4593L98.2408-54.1499L99.7806-53.6636L101.2230-52.9401L102.4694-51.9187L103.4151-50.6128L104.0821-49.1431L104.5266-47.5905L104.8041-45.9991L104.9584-44.3908L105.0224-42.7762L105.0290-41.1603L105.0290-39.5443L105.0290-37.9283L105.0290-36.3123L105.0290-34.6964L105.0290-33.0804L105.0290-31.4644L105.0290-29.8484L105.0284-28.2324L104.9880-26.6171L104.8661-25.0059L104.6327-23.4074L104.2480-21.8387L103.6586-20.3359L102.8016-18.9696L101.6407-17.8522L100.2494-17.0356L98.7362-16.4727L97.1640-16.1025L95.5643-15.8763L93.9529-15.7585L92.3374-15.7228L90.7215-15.7227L89.1055-15.7227L87.4895-15.7227L85.8735-15.7227L84.2575-15.7227L82.6416-15.7227L81.0256-15.7227L79.4096-15.7227L77.7936-15.7227L76.1776-15.7227L74.5616-15.7227L72.9457-15.7227L71.3297-15.7227L70.4386-14.9978L70.4386-13.3818L70.4386-11.7658L70.4386-10.1498L70.5962-8.6914L72.2122-8.6914L73.8281-8.6914L75.4441-8.6914L77.0601-8.6914L78.6761-8.6914L80.2921-8.6914L81.9080-8.6914L83.5240-8.6914L85.1400-8.6914L86.7560-8.6914L88.3720-8.6914L89.9880-8.6914ZM27.0996-49.9512L25.9899-49.9217L24.8877-49.7945L23.8278-49.4734L22.9181-48.8474L22.2370-47.9755L21.8295-46.9461L21.6420-45.8530L21.5838-44.7446L21.5820-43.6344L21.5820-42.5242L21.5820-41.4140L21.5820-40.3037L21.5820-39.1935L21.5820-38.0833L21.5820-36.9731L21.5820-35.8628L21.5820-34.7526L21.5820-33.6424L21.5820-32.5322L21.5820-31.4220L21.5820-30.3117L21.5820-29.2015L21.5820-28.0913L21.5820-26.9811L21.5823-25.8708L21.6297-24.7619L21.8012-23.6661L22.1845-22.6272L22.8423-21.7379L23.7317-21.0811L24.7750-20.7102L25.8727-20.5510L26.9819-20.5081L28.0921-20.5078L29.2023-20.5078L30.3125-20.5078L31.4228-20.5078L32.5330-20.5078L33.6432-20.5078L34.7534-20.5078L35.8637-20.5078L36.9739-20.5078L38.0841-20.5078L39.1943-20.5078L40.3046-20.5078L41.4148-20.5078L42.5250-20.5078L43.6352-20.5078L44.7455-20.5078L45.8557-20.5078L46.9659-20.5078L48.0761-20.5078L49.1863-20.5078L50.2966-20.5078L51.4068-20.5078L52.3038-20.6952L52.0252-21.7676L51.5182-22.7528L50.8295-23.6219L50.0224-24.3833L49.1455-25.0637L48.2292-25.6905L47.2924-26.2863L46.3723-26.9072L45.4883-27.5787L44.6452-28.3008L43.8478-29.0731L43.1013-29.8945L42.4103-30.7633L41.7800-31.6770L41.2150-32.6324L40.7195-33.6256L40.2969-34.6520L39.9505-35.7065L39.6824-36.7836L39.4938-37.8775L39.3851-38.9821L39.3555-40.0917L39.3555-41.2019L39.3555-42.3122L39.3555-43.4224L39.3555-44.5326L39.3555-45.6428L39.3816-46.7523L39.5779-47.8432L40.0243-48.8559L40.7491-49.6908L40.4223-49.9512L39.3121-49.9512L38.2018-49.9512L37.0916-49.9512L35.9814-49.9512L34.8712-49.9512L33.7609-49.9512L32.6507-49.9512L31.5405-49.9512L30.4303-49.9512L29.3200-49.9512L28.2098-49.9512ZM94.8597-20.5082L95.9500-20.5488L97.0304-20.6976L98.0607-21.0483L98.9373-21.6898L99.6006-22.5518L99.9992-23.5646L100.1846-24.6390L100.2423-25.7284L100.2440-26.8198L100.2440-27.9111L100.2440-29.0025L100.2440-30.0938L100.2440-31.1852L100.2440-32.2765L100.2440-33.3679L100.2440-34.4593L100.2440-35.5506L100.2440-36.6420L100.2440-37.7333L100.2440-38.8247L100.2440-39.9160L100.2440-41.0074L100.2440-42.0987L100.2440-43.1901L100.2440-44.2814L100.2228-45.3724L100.1068-46.4570L99.8245-47.5093L99.2956-48.4598L98.5050-49.2041L97.5165-49.6572L96.4472-49.8685L95.3587-49.9427L94.2674-49.9512L93.1761-49.9512L92.0847-49.9512L90.9934-49.9512L89.9020-49.9512L88.8107-49.9512L87.7193-49.9512L86.6280-49.9512L85.5366-49.9512L84.4453-49.9512L83.3539-49.9512L82.2626-49.9512L82.0711-49.6501L82.7787-48.8248L83.2207-47.8306L83.4195-46.7594L83.4473-45.6688L83.4473-44.5775L83.4473-43.4861L83.4473-42.3948L83.4473-41.3034L83.4473-40.2120L83.4254-39.1211L83.3278-38.0343L83.1524-36.9574L82.8996-35.8960L82.5706-34.8557L82.1680-33.8415L81.6944-32.8586L81.1535-31.9109L80.5490-31.0025L79.8855-30.1363L79.1674-29.3147L78.3993-28.5397L77.5858-27.8124L76.7316-27.1335L75.8409-26.5030L74.9215-25.9151L74.0112-25.3132L73.1310-24.6683L72.3043-23.9565L71.5698-23.1506L70.9834-22.2322L70.6018-21.2122L70.8499-20.5078L71.9413-20.5078L73.0326-20.5078L74.1240-20.5078L75.2153-20.5078L76.3067-20.5078L77.3980-20.5078L78.4894-20.5078L79.5807-20.5078L80.6721-20.5078L81.7634-20.5078L82.8548-20.5078L83.9461-20.5078L85.0375-20.5078L86.1288-20.5078L87.2202-20.5078L88.3116-20.5078L89.4029-20.5078L90.4943-20.5078L91.5856-20.5078L92.6770-20.5078L93.7683-20.5078ZM118.0690-25.0294L119.2237-25.3353L120.2940-25.8685L121.2665-26.5651L122.1360-27.3871L122.8993-28.3087L123.5531-29.3110L124.0943-30.3784L124.5195-31.4971L124.8277-32.6535L125.0191-33.8349L125.0959-35.0293L125.0612-36.2257L124.9134-37.4134L124.6491-38.5807L124.2674-39.7150L123.7695-40.8033L123.1576-41.8317L122.4350-42.7856L121.6048-43.6473L120.6706-44.3947L119.6362-44.9950L118.5103-45.3958L117.7730-45.0571L117.7730-43.8598L117.7730-42.6625L117.7730-41.4651L117.7730-40.2678L117.7730-39.0705L117.7730-37.8731L117.7730-36.6758L117.7730-35.4785L117.7730-34.2812L117.7730-33.0838L117.7730-31.8865L117.7730-30.6892L117.7730-29.4918L117.7730-28.2945L117.7730-27.0972L117.7730-25.8999Z" />
  </g>
  <g id="Ultralight-S" transform="matrix(1 0 0 1 498.001 696)">
   <path class="PowerLensBatteryShape" d="M53.3478-8.40215L61.74073-8.40215C63.60501 -8.40215 64.65695 -9.5071 64.65695 -11.38877L64.65695-19.40228C64.65695 -22.47528 65.59915 -24.16667 68.16479 -26.10912C71.83881 -28.94384 73.9165 -33.27056 73.9165 -37.99321L73.9165-48.42509C73.9165 -50.18682 72.8349 -51.25793 71.08925 -51.26014L67.18817-51.26234L67.18817-59.86107C67.18817 -60.96537 66.30972 -61.92311 65.11015 -61.92311C63.93802 -61.92311 63.00026 -60.96537 63.00026 -59.86107L63.00026-51.26234L51.9718-51.26234L51.9718-59.86107C51.9718 -60.96537 51.06598 -61.92311 49.92573 -61.92311C48.7536 -61.92311 47.81584 -60.96537 47.81584 -59.86107L47.81584-51.26234L43.8806-51.26014C42.21946 -51.25793 41.2017 -50.18682 41.2017 -48.42509L41.2017-37.99321C41.2017 -33.27056 43.33647 -28.94384 46.98305 -26.10912C49.57841 -24.16667 50.46124 -22.47528 50.46124 -19.40228L50.46124-11.38877C50.46124 -9.5071 51.51096 -8.40215 53.3478 -8.40215ZM27.7090-58.0928L26.1657-58.0743L24.6237-58.0124L23.0849-57.8946L21.5534-57.7045L20.0366-57.4209L18.5473-57.0177L17.1068-56.4660L15.7448-55.7423L14.4943-54.8399L13.3778-53.7759L12.4099-52.5753L11.6159-51.2532L11.0012-49.8385L10.5482-48.3638L10.2281-46.8544L10.0116-45.3264L9.8747-43.7893L9.7980-42.2478L9.7675-40.7048L9.7656-39.1614L9.7656-37.6180L9.7656-36.0746L9.7656-34.5312L9.7656-32.9878L9.7656-31.4444L9.7687-29.9010L9.7984-28.3579L9.8677-26.8161L9.9892-25.2776L10.1804-23.7463L10.4649-22.2296L10.8725-20.7416L11.4373-19.3063L12.1854-17.9578L13.1199-16.7312L14.2149-15.6451L15.4445-14.7143L16.7910-13.9623L18.2227-13.3885L19.7075-12.9692L21.2220-12.6738L22.7521-12.4731L24.2901-12.3443L25.8316-12.2700L27.3746-12.2373L28.9180-12.2334L30.4614-12.2334L32.0048-12.2334L33.5482-12.2334L35.0916-12.2334L36.6350-12.2334L38.1784-12.2334L39.7218-12.2334L41.2652-12.2334L42.8086-12.2334L44.3520-12.2334L45.8954-12.2334L47.4388-12.2334L48.9822-12.2334L49.1310-13.6280L48.3654-14.4058L46.8220-14.4058L45.2786-14.4058L43.7352-14.4058L42.1918-14.4058L40.6484-14.4058L39.1050-14.4058L37.5616-14.4058L36.0182-14.4058L34.4748-14.4058L32.9314-14.4058L31.3880-14.4058L29.8446-14.4058L28.3012-14.4058L26.7578-14.4080L25.2152-14.4551L23.6765-14.5739L22.1473-14.7803L20.6366-15.0947L19.1602-15.5423L17.7437-16.1525L16.4261-16.9533L15.2586-17.9598L14.2885-19.1576L13.5293-20.4996L12.9631-21.9343L12.5582-23.4230L12.2823-24.9412L12.1081-26.4745L12.0139-28.0149L11.9836-29.5579L11.9834-31.1013L11.9834-32.6447L11.9834-34.1881L11.9834-35.7315L11.9834-37.2749L11.9834-38.8183L11.9836-40.3617L12.0120-41.9048L12.0965-43.4458L12.2513-44.9812L12.4952-46.5049L12.8534-48.0057L13.3567-49.4639L14.0410-50.8458L14.9353-52.1013L16.0450-53.1705L17.3311-54.0203L18.7327-54.6638L20.2020-55.1339L21.7088-55.4658L23.2357-55.6896L24.7727-55.8282L26.3143-55.8994L27.8576-55.9170L29.4010-55.9170L30.9444-55.9170L32.4878-55.9170L34.0312-55.9170L35.5746-55.9170L37.1180-55.9170L38.6614-55.9170L40.2048-55.9170L41.7482-55.9170L43.2916-55.9170L44.8350-55.9170L45.9879-56.3075L45.9879-57.8509L44.6864-58.0928L43.1430-58.0928L41.5996-58.0928L40.0562-58.0928L38.5128-58.0928L36.9694-58.0928L35.4260-58.0928L33.8826-58.0928L32.3392-58.0928L30.7958-58.0928L29.2524-58.0928ZM86.7325-12.2348L88.2568-12.2600L89.7799-12.3237L91.3001-12.4378L92.8138-12.6176L94.3146-12.8835L95.7909-13.2618L97.2231-13.7821L98.5823-14.4701L99.8362-15.3350L100.9594-16.3638L101.9250-17.5420L102.7188-18.8421L103.3328-20.2364L103.7848-21.6917L104.1057-23.1816L104.3259-24.6899L104.4701-26.2075L104.5574-27.7294L104.6016-29.2532L104.6130-30.7777L104.6130-32.3022L104.6130-33.8267L104.6130-35.3512L104.6130-36.8757L104.6130-38.4002L104.6127-39.9247L104.5940-41.4491L104.5404-42.9726L104.4409-44.4937L104.2807-46.0097L104.0396-47.5147L103.6913-48.9985L103.2043-50.4423L102.5484-51.8173L101.7088-53.0881L100.6977-54.2275L99.5344-55.2111L98.2515-56.0326L96.8724-56.6798L95.4278-57.1650L93.9445-57.5151L92.4399-57.7590L90.9242-57.9216L89.4031-58.0222L87.8796-58.0757L86.3552-58.0927L84.8307-58.0928L83.3062-58.0928L81.7817-58.0928L80.2572-58.0928L78.7327-58.0928L77.2082-58.0928L75.6837-58.0928L74.1592-58.0928L72.6347-58.0928L71.1102-58.0928L69.5857-58.0928L69.0049-57.1490L69.2974-55.9170L70.8219-55.9170L72.3464-55.9170L73.8709-55.9170L75.3954-55.9170L76.9199-55.9170L78.4444-55.9170L79.9689-55.9170L81.4934-55.9170L83.0179-55.9170L84.5424-55.9170L86.0669-55.9170L87.5914-55.9156L89.1152-55.8725L90.6354-55.7602L92.1469-55.5630L93.6408-55.2612L95.1025-54.8302L96.5077-54.2416L97.8201-53.4687L98.9917-52.4961L99.9770-51.3354L100.7602-50.0291L101.3541-48.6262L101.7863-47.1649L102.0870-45.6707L102.2825-44.1591L102.3943-42.6388L102.4387-41.1151L102.4410-39.5906L102.4410-38.0661L102.4410-36.5416L102.4410-35.0171L102.4410-33.4926L102.4410-31.9680L102.4410-30.4435L102.4346-28.9191L102.3763-27.3958L102.2462-25.8770L102.0276-24.3686L101.6992-22.8803L101.2356-21.4287L100.6081-20.0405L99.7915-18.7549L98.7764-17.6201L97.5798-16.6785L96.2483-15.9389L94.8295-15.3835L93.3593-14.9825L91.8603-14.7068L90.3462-14.5312L88.8248-14.4361L87.3007-14.4059L85.7762-14.4058L84.2517-14.4058L82.7272-14.4058L81.2027-14.4058L79.6781-14.4058L78.1536-14.4058L76.6291-14.4058L75.1046-14.4058L73.5801-14.4058L72.0556-14.4058L70.5311-14.4058L69.0066-14.4058L67.4821-14.4058L65.9975-14.3659L65.9975-12.8414L66.9140-12.2334L68.4385-12.2334L69.9630-12.2334L71.4875-12.2334L73.0120-12.2334L74.5365-12.2334L76.0610-12.2334L77.5855-12.2334L79.1100-12.2334L80.6345-12.2334L82.1590-12.2334L83.6835-12.2334L85.2080-12.2334ZM27.5083-52.8574L26.2421-52.8414L24.9769-52.7882L23.7146-52.6879L22.4588-52.5264L21.2161-52.2839L20.0006-51.9309L18.8400-51.4273L17.7885-50.7258L16.9361-49.7941L16.2963-48.7032L15.8337-47.5254L15.5080-46.3022L15.2846-45.0560L15.1379-43.7983L15.0493-42.5351L15.0061-41.2695L14.9976-40.0032L14.9976-38.7369L14.9976-37.4705L14.9976-36.2042L14.9976-34.9378L14.9976-33.6714L14.9976-32.4051L14.9976-31.1387L14.9976-29.8724L15.0071-28.6061L15.0563-27.3407L15.1581-26.0786L15.3282-24.8239L15.5888-23.5850L15.9697-22.3781L16.5073-21.2329L17.2324-20.1969L18.1808-19.3637L19.2792-18.7365L20.4583-18.2771L21.6813-17.9504L22.9274-17.7262L24.1853-17.5815L25.4489-17.4991L26.7148-17.4669L27.9811-17.4654L29.2475-17.4654L30.5138-17.4654L31.7802-17.4654L33.0466-17.4654L34.3129-17.4654L35.5793-17.4654L36.8456-17.4654L38.1120-17.4654L39.3783-17.4654L40.6447-17.4654L41.9111-17.4654L43.1774-17.4654L44.4438-17.4654L45.7101-17.4654L46.9765-17.4654L48.2429-17.4654L49.1291-17.8436L49.0497-19.1069L48.8122-20.3496L48.3662-21.5327L47.7017-22.6085L46.8637-23.5564L45.9133-24.3925L44.8979-25.1489L43.9076-25.9377L42.9766-26.7958L42.1116-27.7202L41.3185-28.7070L40.6029-29.7515L39.9703-30.8481L39.4254-31.9909L38.9725-33.1731L38.6147-34.3875L38.3544-35.6265L38.1929-36.8822L38.1303-38.1467L38.1294-39.4130L38.1294-40.6794L38.1294-41.9457L38.1294-43.2121L38.1294-44.4784L38.1294-45.7448L38.1294-47.0112L38.1294-48.2775L38.1294-49.5439L38.2165-50.8042L38.7209-51.9553L39.6867-52.7555L38.9055-52.8574L37.6392-52.8574L36.3728-52.8574L35.1065-52.8574L33.8401-52.8574L32.5737-52.8574L31.3074-52.8574L30.0410-52.8574L28.7747-52.8574ZM87.6324-17.4664L88.8852-17.4942L90.1361-17.5669L91.3823-17.6975L92.6180-17.9041L93.8322-18.2122L95.0029-18.6567L96.0888-19.2787L97.0261-20.1066L97.7750-21.1090L98.3406-22.2258L98.7501-23.4094L99.0367-24.6289L99.2288-25.8670L99.3480-27.1143L99.4100-28.3658L99.4268-29.6188L99.4268-30.8720L99.4268-32.1251L99.4268-33.3783L99.4268-34.6314L99.4268-35.8846L99.4268-37.1377L99.4268-38.3908L99.4268-39.6440L99.4266-40.8971L99.4046-42.1500L99.3368-43.4012L99.2113-44.6479L99.0109-45.8847L98.7129-47.1015L98.2873-48.2793L97.7011-49.3853L96.9313-50.3718L95.9463-51.1428L94.8360-51.7211L93.6557-52.1398L92.4383-52.4350L91.2015-52.6357L89.9550-52.7633L88.7039-52.8333L87.4511-52.8572L86.1979-52.8574L84.9448-52.8574L83.6917-52.8574L82.4385-52.8574L81.1854-52.8574L79.9322-52.8574L78.6791-52.8574L77.4259-52.8574L76.1728-52.8574L75.2809-52.7874L76.2872-52.0583L76.8674-50.9592L76.9991-49.7177L76.9991-48.4646L76.9991-47.2115L76.9991-45.9583L76.9991-44.7052L76.9991-43.4520L76.9991-42.1989L76.9991-40.9457L76.9991-39.6926L76.9991-38.4394L76.9608-37.1872L76.8282-35.9414L76.6003-34.7094L76.2774-33.4990L75.8607-32.3175L75.3525-31.1723L74.7562-30.0706L74.0756-29.0187L73.3159-28.0225L72.4825-27.0871L71.5815-26.2165L70.6189-25.4146L69.6119-24.6687L68.6453-23.8719L67.7668-22.9793L67.0299-21.9677L66.4897-20.8390L66.1637-19.6306L66.0190-18.3867L66.3290-17.4654L67.5821-17.4654L68.8353-17.4654L70.0884-17.4654L71.3415-17.4654L72.5947-17.4654L73.8478-17.4654L75.1010-17.4654L76.3541-17.4654L77.6073-17.4654L78.8604-17.4654L80.1136-17.4654L81.3667-17.4654L82.6198-17.4654L83.8730-17.4654L85.1261-17.4654L86.3793-17.4654ZM107.9321-26.8850L108.8682-27.1314L109.7358-27.5627L110.5246-28.1262L111.2307-28.7907L111.8517-29.5354L112.3848-30.3454L112.8272-31.2084L113.1761-32.1132L113.4298-33.0492L113.5881-34.0060L113.6521-34.9738L113.6242-35.9432L113.5031-36.9054L113.2866-37.8508L112.9746-38.7690L112.5685-39.6496L112.0704-40.4817L111.4834-41.2535L110.8101-41.9512L110.0534-42.5572L109.2159-43.0449L108.3042-43.3716L107.6920-43.1142L107.6920-42.1440L107.6920-41.1738L107.6920-40.2035L107.6920-39.2333L107.6920-38.2631L107.6920-37.2929L107.6920-36.3227L107.6920-35.3525L107.6920-34.3822L107.6920-33.4120L107.6920-32.4418L107.6920-31.4716L107.6920-30.5014L107.6920-29.5312L107.6920-28.5609L107.6920-27.5907Z" />
  </g>
 </g>
</svg>
