<?xml version="1.0" encoding="UTF-8"?>
<!--
  PowerLens menu bar battery asset.
  Generated for PowerLens battery status rendering.
-->
<svg version="1.1" xmlns="http://www.w3.org/2000/svg" viewBox="0 0 3300 2200">
 <style>.PowerLensBatteryShape {fill:none;opacity:1.0;stroke:black;stroke-width:0.5}
</style>
 <g id="Symbols">
  <g id="Black-S" transform="matrix(1 0 0 1 2861.82 696)">
   <path class="PowerLensBatteryShape" d="M61.20837-7.33764L66.91667-7.33764C70.90954 -7.33764 73.00949 -9.38577 73.00949 -13.1734L73.00949-19.96309C73.00949 -22.54427 73.66017 -23.69461 75.84886 -25.40606C80.34455 -28.94121 83.1543 -34.07554 83.1543 -39.71493L83.1543-45.77511C83.1543 -47.6549 81.7642 -49.00165 79.81217 -49.00165L75.90798-49.00165L75.90798-59.29839C75.90798 -61.43067 74.07425 -63.17021 71.856 -63.17021C69.66731 -63.17021 67.83357 -61.43067 67.83357 -59.29839L67.83357-49.00165L60.38022-49.00165L60.38022-59.29839C60.38022 -61.43067 58.54642 -63.17021 56.35779 -63.17021C54.13948 -63.17021 52.30574 -61.43067 52.30574 -59.29839L52.30574-49.00165L48.31288-49.00165C46.36078 -49.00165 44.9707 -47.6549 44.9707 -45.77511L44.9707-39.71493C44.9707 -34.07554 47.7805 -28.94121 52.27618 -25.40606C54.46488 -23.69461 55.11555 -22.54427 55.11555 -19.96309L55.11555-13.1734C55.11555 -9.38577 57.21551 -7.33764 61.20837 -7.33764ZM33.6914-66.3086L31.9981-66.2900L30.3059-66.2286L28.6164-66.1149L26.9326-65.9367L25.2591-65.6790L23.6036-65.3243L21.9774-64.8535L20.3968-64.2475L18.8816-63.4929L17.4530-62.5852L16.1268-61.5335L14.9092-60.3575L13.8078-59.0721L12.8442-57.6806L12.0338-56.1946L11.3785-54.6339L10.8671-53.0201L10.4806-51.3718L10.1985-49.7022L10.0014-48.0205L9.8723-46.3321L9.7979-44.6404L9.7675-42.9474L9.7656-41.2540L9.7656-39.5606L9.7656-37.8672L9.7656-36.1738L9.7656-34.4804L9.7656-32.7870L9.7656-31.0936L9.7656-29.4002L9.7668-27.7068L9.7937-26.0137L9.8636-24.3218L9.9871-22.6330L10.1773-20.9505L10.4500-19.2794L10.8247-17.6283L11.3222-16.0102L11.9620-14.4430L12.7575-12.9490L13.7091-11.5493L14.8034-10.2580L16.0173-9.0781L17.3370-8.0181L18.7574-7.0976L20.2651-6.3282L21.8400-5.7074L23.4623-5.2234L25.1154-4.8576L26.7874-4.5912L28.4705-4.4059L30.1597-4.2868L31.8517-4.2214L33.5449-4.1995L35.2383-4.1992L36.9317-4.1992L38.6251-4.1992L40.3185-4.1992L42.0119-4.1992L43.7053-4.1992L45.3987-4.1992L47.0921-4.1992L48.7855-4.1992L50.4789-4.1992L52.1723-4.1992L52.7189-4.9117L52.2641-6.5389L52.1409-8.2258L52.1409-9.9192L52.1409-11.6126L52.1409-13.3060L52.1409-14.9994L52.1394-16.6928L51.9796-18.3594L50.2862-18.3594L48.5928-18.3594L46.8994-18.3594L45.2060-18.3594L43.5126-18.3594L41.8192-18.3594L40.1258-18.3594L38.4324-18.3594L36.7390-18.3594L35.0456-18.3594L33.3522-18.3594L31.6590-18.3719L29.9691-18.4754L28.3007-18.7562L26.7289-19.3716L25.4206-20.4363L24.5428-21.8727L24.1319-23.5121L23.9695-25.1970L23.9261-26.8897L23.9258-28.5831L23.9258-30.2765L23.9258-31.9699L23.9258-33.6633L23.9258-35.3567L23.9258-37.0501L23.9258-38.7435L23.9258-40.4368L23.9258-42.1302L23.9274-43.8236L23.9856-45.5158L24.1799-47.1971L24.6493-48.8201L25.5763-50.2275L26.9034-51.2649L28.4985-51.8181L30.1736-52.0585L31.8646-52.1414L33.5580-52.1484L35.2514-52.1484L36.9447-52.1484L38.6381-52.1484L40.3315-52.1484L42.0249-52.1484L43.7183-52.1484L45.4117-52.1484L47.1051-52.1484L48.3968-52.5501L48.3968-54.2435L48.3968-55.9369L48.3968-57.6303L48.3968-59.3236L48.3968-61.0170L48.3968-62.7104L48.3968-64.4038L48.6017-66.0757L47.2385-66.3086L45.5451-66.3086L43.8518-66.3086L42.1584-66.3086L40.4650-66.3086L38.7716-66.3086L37.0782-66.3086L35.3848-66.3086ZM93.5344-4.2012L95.1840-4.2317L96.8321-4.3055L98.4770-4.4319L100.1156-4.6231L101.7431-4.8930L103.3515-5.2589L104.9297-5.7384L106.4620-6.3486L107.9295-7.1011L109.3129-7.9987L110.5985-9.0316L111.7805-10.1819L112.8522-11.4354L113.7931-12.7898L114.5886-14.2343L115.2367-15.7508L115.7469-17.3194L116.1365-18.9222L116.4244-20.5465L116.6293-22.1834L116.7667-23.8275L116.8497-25.4752L116.8889-27.1245L116.8950-28.7743L116.8950-30.4242L116.8950-32.0741L116.8950-33.7239L116.8950-35.3738L116.8950-37.0236L116.8950-38.6735L116.8950-40.3233L116.8950-41.9732L116.8856-43.6230L116.8406-45.2722L116.7507-46.9195L116.6048-48.5628L116.3897-50.1984L116.0896-51.8205L115.6857-53.4198L115.1588-54.9827L114.4918-56.4910L113.6758-57.9241L112.7132-59.2631L111.6198-60.4977L110.4172-61.6264L109.1148-62.6381L107.7180-63.5148L106.2408-64.2480L104.7016-64.8406L103.1188-65.3048L101.5073-65.6573L99.8781-65.9159L98.2384-66.0975L96.5929-66.2159L94.9444-66.2829L93.2948-66.3079L91.6450-66.3086L89.9951-66.3086L88.3452-66.3086L86.6954-66.3086L85.0455-66.3086L83.3957-66.3086L81.7458-66.3086L80.0960-66.3086L79.8222-65.2312L79.8464-63.5822L79.8464-61.9323L79.8464-60.2825L79.8464-58.6326L79.8464-56.9828L79.8464-55.3329L79.8464-53.6831L79.9616-52.1484L81.6114-52.1484L83.2613-52.1484L84.9111-52.1484L86.5610-52.1484L88.2108-52.1484L89.8607-52.1484L91.5105-52.1484L93.1604-52.1484L94.8102-52.1406L96.4575-52.0548L98.0888-51.8154L99.6477-51.2880L100.9853-50.3337L101.9551-49.0102L102.4507-47.4413L102.6588-45.8056L102.7286-44.1574L102.7340-42.5076L102.7340-40.8578L102.7340-39.2079L102.7340-37.5581L102.7340-35.9082L102.7340-34.2584L102.7340-32.6085L102.7340-30.9586L102.7340-29.3088L102.7340-27.6589L102.7205-26.0092L102.6229-24.3626L102.3586-22.7354L101.7660-21.2016L100.7305-19.9253L99.3423-19.0498L97.7556-18.6098L96.1173-18.4211L94.4688-18.3616L92.8189-18.3594L91.1691-18.3594L89.5192-18.3594L87.8694-18.3594L86.2195-18.3594L84.5697-18.3594L82.9198-18.3594L81.2700-18.3594L79.6201-18.3594L77.9703-18.3594L76.3204-18.3594L75.9902-16.9112L75.9842-15.2614L75.9842-13.6115L75.9842-11.9617L75.9842-10.3118L75.9842-8.6620L75.9256-7.0142L75.5878-5.4023L75.3861-4.1992L77.0359-4.1992L78.6858-4.1992L80.3356-4.1992L81.9855-4.1992L83.6353-4.1992L85.2852-4.1992L86.9350-4.1992L88.5849-4.1992L90.2347-4.1992L91.8846-4.1992ZM34.8706-24.9512L35.5066-24.9512L36.1427-24.9512L36.7787-24.9512L37.4147-24.9512L38.0508-24.9512L38.6868-24.9512L39.3228-24.9512L39.9588-24.9512L40.5949-24.9512L41.2309-24.9512L41.8669-24.9512L42.503-24.9512L43.139-24.9512L43.775-24.9528L44.4097-24.9906L45.0345-25.106L45.6237-25.3413L45.2684-25.769L44.8205-26.2205L44.3842-26.6832L43.9598-27.1569L43.5478-27.6415L43.1488-28.1367L42.7632-28.6425L42.3914-29.1585L42.0341-29.6847L41.6918-30.2208L41.3649-30.7663L41.0541-31.3212L40.7597-31.885L40.4826-32.4575L40.2232-33.0383L39.9818-33.6267L39.7588-34.2223L39.5549-34.8248L39.3704-35.4334L39.2056-36.0477L39.0609-36.667L38.9366-37.2907L38.8328-37.9182L38.75-38.5487L38.688-39.1817L38.6472-39.8163L38.6274-40.452L38.6232-41.088L38.623-41.724L38.623-42.36L38.623-42.9961L38.623-43.6321L38.623-44.2681L38.623-44.9041L38.4207-45.4825L37.8259-45.5566L37.1899-45.5566L36.5539-45.5566L35.9178-45.5566L35.2818-45.5566L34.6458-45.5566L34.0097-45.5566L33.374-45.5393L32.743-45.4664L32.1326-45.2956L31.5797-44.9906L31.127-44.5515L30.8082-44.0075L30.6241-43.4023L30.5416-42.7731L30.5193-42.1379L30.5176-41.5018L30.5176-40.8658L30.5176-40.2298L30.5176-39.5937L30.5176-38.9577L30.5176-38.3217L30.5176-37.6856L30.5176-37.0496L30.5176-36.4136L30.5176-35.7776L30.5176-35.1415L30.5176-34.5055L30.5176-33.8695L30.5176-33.2334L30.5176-32.5974L30.5176-31.9614L30.5176-31.3253L30.5176-30.6893L30.5176-30.0533L30.5176-29.4172L30.5176-28.7812L30.522-28.1453L30.5578-27.5108L30.6684-26.8857L30.895-26.2937L31.2647-25.779L31.7593-25.3821L32.3415-25.1285L32.9642-25.0004L33.5985-24.9547L34.2346-24.9512ZM124.5890-22.4977L126.0305-22.8801L127.3669-23.5454L128.5820-24.4137L129.6698-25.4376L130.6264-26.5851L131.4472-27.8334L132.1280-29.1634L132.6645-30.5579L133.0543-32.0003L133.2972-33.4746L133.3951-34.9656L133.3519-36.4592L133.1656-37.9417L132.8326-39.3983L132.3522-40.8131L131.7267-42.1700L130.9593-43.4519L130.0547-44.6409L129.0168-45.7154L127.8504-46.6483L126.5598-47.3993L125.1554-47.9030L124.2190-47.5007L124.2190-46.0059L124.2190-44.5111L124.2190-43.0162L124.2190-41.5214L124.2190-40.0266L124.2190-38.5318L124.2190-37.0370L124.2190-35.5422L124.2190-34.0474L124.2190-32.5526L124.2190-31.0578L124.2190-29.5630L124.2190-28.0682L124.2190-26.5734L124.2190-25.0786L124.2190-23.5838Z" />
  </g>
  <g id="Regular-S" transform="matrix(1 0 0 1 1382.41 696)">
   <path class="PowerLensBatteryShape" d="M58.74219-9.53412L63.914-9.53412C66.65028 -9.53412 68.03344 -10.86952 68.03344 -13.48348L68.03344-22.63233C68.03344 -25.04741 69.53688 -26.3544 71.73193 -27.86027C75.67088 -30.61628 77.6855 -34.76452 77.6855 -39.08326L77.6855-44.1407C77.6855 -46.72628 76.30233 -48.00481 73.56611 -48.03326L71.76198-48.06166L71.76198-57.92086C71.76198 -59.62557 70.31865 -60.96101 68.54463 -60.96101C66.74049 -60.96101 65.29716 -59.62557 65.29716 -57.92086L65.29716-48.06166L57.38908-48.06166L57.38908-57.92086C57.38908 -59.62557 55.97586 -60.96101 54.20184 -60.96101C52.3977 -60.96101 50.95437 -59.62557 50.95437 -57.92086L50.95437-48.06166L49.09014-48.03326C46.29375 -48.00481 44.9707 -46.72628 44.9707 -44.1407L44.9707-39.08326C44.9707 -34.76452 46.95525 -30.61628 50.92432 -27.86027C53.11931 -26.3544 54.6228 -25.04741 54.6228 -22.63233L54.6228-13.48348C54.6228 -10.86952 55.97586 -9.53412 58.74219 -9.53412ZM30.6152-61.8164L28.9703-61.8017L27.3262-61.7482L25.6848-61.6401L24.0498-61.4600L22.4277-61.1883L20.8287-60.8036L19.2685-60.2842L17.7679-59.6121L16.3527-58.7753L15.0482-57.7748L13.8754-56.6228L12.8544-55.3343L12.0003-53.9296L11.3151-52.4350L10.7873-50.8776L10.3981-49.2797L10.1244-47.6579L9.9437-46.0230L9.8356-44.3817L9.7816-42.7376L9.7657-41.0927L9.7656-39.4476L9.7656-37.8026L9.7656-36.1576L9.7656-34.5126L9.7656-32.8675L9.7656-31.2225L9.7656-29.5775L9.7786-27.9326L9.8281-26.2883L9.9301-24.6466L10.1025-23.0108L10.3654-21.3872L10.7410-19.7860L11.2517-18.2229L11.9163-16.7190L12.7471-15.3003L13.7432-13.9924L14.8978-12.8226L16.1925-11.8094L17.5995-10.9590L19.0941-10.2736L20.6503-9.7423L22.2468-9.3477L23.8676-9.0677L25.5018-8.8810L27.1428-8.7675L28.7867-8.7096L30.4316-8.6916L32.0766-8.6914L33.7216-8.6914L35.3667-8.6914L37.0117-8.6914L38.6567-8.6914L40.3017-8.6914L41.9468-8.6914L43.5918-8.6914L45.2368-8.6914L46.8818-8.6914L48.5269-8.6914L50.1719-8.6914L51.8169-8.6914L52.3642-9.7891L52.3642-11.4341L52.3642-13.0791L52.3642-14.7242L51.7178-15.7227L50.0727-15.7227L48.4277-15.7227L46.7827-15.7227L45.1377-15.7227L43.4927-15.7227L41.8476-15.7227L40.2026-15.7227L38.5576-15.7227L36.9126-15.7227L35.2675-15.7227L33.6225-15.7227L31.9775-15.7227L30.3325-15.7227L28.6875-15.7316L27.0444-15.8073L25.4089-15.9811L23.7929-16.2854L22.2205-16.7648L20.7412-17.4793L19.4493-18.4907L18.4572-19.7977L17.7637-21.2869L17.3057-22.8657L17.0218-24.4855L16.8654-26.1227L16.8023-27.7664L16.7969-29.4114L16.7969-31.0564L16.7969-32.7014L16.7969-34.3464L16.7969-35.9915L16.7969-37.6365L16.7969-39.2815L16.7969-40.9265L16.8004-42.5715L16.8568-44.2155L17.0035-45.8536L17.2744-47.4756L17.7146-49.0596L18.3819-50.5609L19.3363-51.8963L20.6022-52.9393L22.0716-53.6732L23.6409-54.1623L25.2562-54.4702L26.8916-54.6456L28.5345-54.7241L30.1795-54.7363L31.8245-54.7363L33.4695-54.7363L35.1145-54.7363L36.7596-54.7363L38.4046-54.7363L40.0496-54.7363L41.6946-54.7363L43.3396-54.7363L44.9847-54.7363L46.6297-54.7363L47.4201-55.5909L47.4201-57.2360L47.4201-58.8810L47.4201-60.5260L47.0654-61.8164L45.4204-61.8164L43.7754-61.8164L42.1304-61.8164L40.4853-61.8164L38.8403-61.8164L37.1953-61.8164L35.5503-61.8164L33.9052-61.8164L32.2602-61.8164ZM91.6039-8.6921L93.2197-8.7138L94.8345-8.7754L96.4461-8.8921L98.0509-9.0808L99.6422-9.3607L101.2096-9.7523L102.7378-10.2758L104.2064-10.9483L105.5909-11.7799L106.8675-12.7690L108.0106-13.9095L109.0012-15.1850L109.8328-16.5695L110.5034-18.0389L111.0234-19.5683L111.4106-21.1367L111.6856-22.7289L111.8696-24.3342L111.9821-25.9461L112.0406-27.5610L112.0604-29.1768L112.0610-30.7928L112.0610-32.4088L112.0610-34.0248L112.0610-35.6408L112.0610-37.2567L112.0610-38.8727L112.0610-40.4887L112.0548-42.1047L112.0183-43.7202L111.9360-45.3340L111.7914-46.9434L111.5659-48.5433L111.2389-50.1255L110.7888-51.6770L110.1949-53.1792L109.4424-54.6082L108.5263-55.9382L107.4539-57.1457L106.2445-58.2161L104.9161-59.1346L103.4903-59.8933L101.9917-60.4962L100.4432-60.9564L98.8631-61.2934L97.2644-61.5280L95.6558-61.6803L94.0423-61.7684L92.4269-61.8088L90.8109-61.8164L89.1949-61.8164L87.5790-61.8164L85.9630-61.8164L84.3470-61.8164L82.7310-61.8164L81.1150-61.8164L79.4990-61.8164L77.8831-61.8164L76.2671-61.8164L75.4638-61.0037L75.4638-59.3877L75.4638-57.7717L75.4638-56.1558L75.6603-54.7363L77.2763-54.7363L78.8923-54.7363L80.5083-54.7363L82.1242-54.7363L83.7402-54.7363L85.3562-54.7363L86.9722-54.7363L88.5882-54.7363L90.2042-54.7363L91.8201-54.7363L93.4360-54.7213L95.0497-54.6385L96.6554-54.4593L98.2408-54.1499L99.7806-53.6636L101.2230-52.9401L102.4694-51.9187L103.4151-50.6128L104.0821-49.1431L104.5266-47.5905L104.8041-45.9991L104.9584-44.3908L105.0224-42.7762L105.0290-41.1603L105.0290-39.5443L105.0290-37.9283L105.0290-36.3123L105.0290-34.6964L105.0290-33.0804L105.0290-31.4644L105.0290-29.8484L105.0284-28.2324L104.9880-26.6171L104.8661-25.0059L104.6327-23.4074L104.2480-21.8387L103.6586-20.3359L102.8016-18.9696L101.6407-17.8522L100.2494-17.0356L98.7362-16.4727L97.1640-16.1025L95.5643-15.8763L93.9529-15.7585L92.3374-15.7228L90.7215-15.7227L89.1055-15.7227L87.4895-15.7227L85.8735-15.7227L84.2575-15.7227L82.6416-15.7227L81.0256-15.7227L79.4096-15.7227L77.7936-15.7227L76.1776-15.7227L74.5616-15.7227L72.9457-15.7227L71.3297-15.7227L70.4386-14.9978L70.4386-13.3818L70.4386-11.7658L70.4386-10.1498L70.5962-8.6914L72.2122-8.6914L73.8281-8.6914L75.4441-8.6914L77.0601-8.6914L78.6761-8.6914L80.2921-8.6914L81.9080-8.6914L83.5240-8.6914L85.1400-8.6914L86.7560-8.6914L88.3720-8.6914L89.9880-8.6914ZM29.2023-20.5078L30.1159-20.5078L31.0295-20.5078L31.9431-20.5078L32.8567-20.5078L33.7703-20.5078L34.6839-20.5078L35.5975-20.5078L36.511-20.5159L37.4226-20.5722L38.3243-20.7157L39.1902-21.002L39.9635-21.4835L40.5915-22.1437L41.0335-22.9403L41.2872-23.8166L41.4093-24.7215L41.4519-25.6339L41.4551-26.5475L41.4551-27.4611L41.4551-28.3747L41.4551-29.2883L41.4551-30.2019L41.4551-31.1154L41.4551-32.029L41.1058-32.8512L40.7011-33.6702L40.3533-34.515L40.058-35.3792L39.813-36.2587L39.6191-37.1509L39.4765-38.0529L39.3871-38.9621L39.3613-39.8753L39.3555-40.7888L39.3555-41.7024L39.3555-42.616L39.3555-43.5296L39.3555-44.4432L39.3555-45.3568L39.3703-46.2702L39.458-47.1768L39.6733-48.0596L40.0528-48.8887L39.3657-49.41L38.5089-49.7214L37.6092-49.8764L36.698-49.939L35.7845-49.9512L34.8709-49.9512L33.9574-49.9512L33.0438-49.9512L32.1302-49.9512L31.2166-49.9512L30.303-49.9512L29.3894-49.9512L28.4758-49.9512L27.5622-49.9512L26.6488-49.9392L25.7371-49.8925L24.8316-49.7775L23.9572-49.5126L23.1865-49.0321L22.5562-48.3841L22.0915-47.608L21.7954-46.7473L21.6419-45.8467L21.5938-44.9344L21.5826-44.021L21.582-43.1074L21.582-42.1938L21.582-41.2803L21.582-40.3667L21.582-39.4531L21.582-38.5395L21.582-37.6259L21.582-36.7123L21.582-35.7987L21.582-34.8851L21.582-33.9715L21.582-33.0579L21.582-32.1443L21.582-31.2307L21.582-30.3171L21.582-29.4035L21.582-28.4899L21.582-27.5763L21.5821-26.6627L21.5875-25.7492L21.6265-24.8365L21.7594-23.933L22.0239-23.0624L22.4519-22.2656L23.0492-21.5851L23.7932-21.0592L24.654-20.7532L25.5521-20.5975L26.4619-20.5282L27.3751-20.508L28.2887-20.5078ZM118.0690-25.0294L119.2237-25.3353L120.2940-25.8685L121.2665-26.5651L122.1360-27.3871L122.8993-28.3087L123.5531-29.3110L124.0943-30.3784L124.5195-31.4971L124.8277-32.6535L125.0191-33.8349L125.0959-35.0293L125.0612-36.2257L124.9134-37.4134L124.6491-38.5807L124.2674-39.7150L123.7695-40.8033L123.1576-41.8317L122.4350-42.7856L121.6048-43.6473L120.6706-44.3947L119.6362-44.9950L118.5103-45.3958L117.7730-45.0571L117.7730-43.8598L117.7730-42.6625L117.7730-41.4651L117.7730-40.2678L117.7730-39.0705L117.7730-37.8731L117.7730-36.6758L117.7730-35.4785L117.7730-34.2812L117.7730-33.0838L117.7730-31.8865L117.7730-30.6892L117.7730-29.4918L117.7730-28.2945L117.7730-27.0972L117.7730-25.8999Z" />
  </g>
  <g id="Ultralight-S" transform="matrix(1 0 0 1 498.001 696)">
   <path class="PowerLensBatteryShape" d="M53.3478-8.40215L61.74073-8.40215C63.60501 -8.40215 64.65695 -9.5071 64.65695 -11.38877L64.65695-19.40228C64.65695 -22.47528 65.59915 -24.16667 68.16479 -26.10912C71.83881 -28.94384 73.9165 -33.27056 73.9165 -37.99321L73.9165-48.42509C73.9165 -50.18682 72.8349 -51.25793 71.08925 -51.26014L67.18817-51.26234L67.18817-59.86107C67.18817 -60.96537 66.30972 -61.92311 65.11015 -61.92311C63.93802 -61.92311 63.00026 -60.96537 63.00026 -59.86107L63.00026-51.26234L51.9718-51.26234L51.9718-59.86107C51.9718 -60.96537 51.06598 -61.92311 49.92573 -61.92311C48.7536 -61.92311 47.81584 -60.96537 47.81584 -59.86107L47.81584-51.26234L43.8806-51.26014C42.21946 -51.25793 41.2017 -50.18682 41.2017 -48.42509L41.2017-37.99321C41.2017 -33.27056 43.33647 -28.94384 46.98305 -26.10912C49.57841 -24.16667 50.46124 -22.47528 50.46124 -19.40228L50.46124-11.38877C50.46124 -9.5071 51.51096 -8.40215 53.3478 -8.40215ZM27.7090-58.0928L26.1657-58.0743L24.6237-58.0124L23.0849-57.8946L21.5534-57.7045L20.0366-57.4209L18.5473-57.0177L17.1068-56.4660L15.7448-55.7423L14.4943-54.8399L13.3778-53.7759L12.4099-52.5753L11.6159-51.2532L11.0012-49.8385L10.5482-48.3638L10.2281-46.8544L10.0116-45.3264L9.8747-43.7893L9.7980-42.2478L9.7675-40.7048L9.7656-39.1614L9.7656-37.6180L9.7656-36.0746L9.7656-34.5312L9.7656-32.9878L9.7656-31.4444L9.7687-29.9010L9.7984-28.3579L9.8677-26.8161L9.9892-25.2776L10.1804-23.7463L10.4649-22.2296L10.8725-20.7416L11.4373-19.3063L12.1854-17.9578L13.1199-16.7312L14.2149-15.6451L15.4445-14.7143L16.7910-13.9623L18.2227-13.3885L19.7075-12.9692L21.2220-12.6738L22.7521-12.4731L24.2901-12.3443L25.8316-12.2700L27.3746-12.2373L28.9180-12.2334L30.4614-12.2334L32.0048-12.2334L33.5482-12.2334L35.0916-12.2334L36.6350-12.2334L38.1784-12.2334L39.7218-12.2334L41.2652-12.2334L42.8086-12.2334L44.3520-12.2334L45.8954-12.2334L47.4388-12.2334L48.9822-12.2334L49.1310-13.6280L48.3654-14.4058L46.8220-14.4058L45.2786-14.4058L43.7352-14.4058L42.1918-14.4058L40.6484-14.4058L39.1050-14.4058L37.5616-14.4058L36.0182-14.4058L34.4748-14.4058L32.9314-14.4058L31.3880-14.4058L29.8446-14.4058L28.3012-14.4058L26.7578-14.4080L25.2152-14.4551L23.6765-14.5739L22.1473-14.7803L20.6366-15.0947L19.1602-15.5423L17.7437-16.1525L16.4261-16.9533L15.2586-17.9598L14.2885-19.1576L13.5293-20.4996L12.9631-21.9343L12.5582-23.4230L12.2823-24.9412L12.1081-26.4745L12.0139-28.0149L11.9836-29.5579L11.9834-31.1013L11.9834-32.6447L11.9834-34.1881L11.9834-35.7315L11.9834-37.2749L11.9834-38.8183L11.9836-40.3617L12.0120-41.9048L12.0965-43.4458L12.2513-44.9812L12.4952-46.5049L12.8534-48.0057L13.3567-49.4639L14.0410-50.8458L14.9353-52.1013L16.0450-53.1705L17.3311-54.0203L18.7327-54.6638L20.2020-55.1339L21.7088-55.4658L23.2357-55.6896L24.7727-55.8282L26.3143-55.8994L27.8576-55.9170L29.4010-55.9170L30.9444-55.9170L32.4878-55.9170L34.0312-55.9170L35.5746-55.9170L37.1180-55.9170L38.6614-55.9170L40.2048-55.9170L41.7482-55.9170L43.2916-55.9170L44.8350-55.9170L45.9879-56.3075L45.9879-57.8509L44.6864-58.0928L43.1430-58.0928L41.5996-58.0928L40.0562-58.0928L38.5128-58.0928L36.9694-58.0928L35.4260-58.0928L33.8826-58.0928L32.3392-58.0928L30.7958-58.0928L29.2524-58.0928ZM86.7325-12.2348L88.2568-12.2600L89.7799-12.3237L91.3001-12.4378L92.8138-12.6176L94.3146-12.8835L95.7909-13.2618L97.2231-13.7821L98.5823-14.4701L99.8362-15.3350L100.9594-16.3638L101.9250-17.5420L102.7188-18.8421L103.3328-20.2364L103.7848-21.6917L104.1057-23.1816L104.3259-24.6899L104.4701-26.2075L104.5574-27.7294L104.6016-29.2532L104.6130-30.7777L104.6130-32.3022L104.6130-33.8267L104.6130-35.3512L104.6130-36.8757L104.6130-38.4002L104.6127-39.9247L104.5940-41.4491L104.5404-42.9726L104.4409-44.4937L104.2807-46.0097L104.0396-47.5147L103.6913-48.9985L103.2043-50.4423L102.5484-51.8173L101.7088-53.0881L100.6977-54.2275L99.5344-55.2111L98.2515-56.0326L96.8724-56.6798L95.4278-57.1650L93.9445-57.5151L92.4399-57.7590L90.9242-57.9216L89.4031-58.0222L87.8796-58.0757L86.3552-58.0927L84.8307-58.0928L83.3062-58.0928L81.7817-58.0928L80.2572-58.0928L78.7327-58.0928L77.2082-58.0928L75.6837-58.0928L74.1592-58.0928L72.6347-58.0928L71.1102-58.0928L69.5857-58.0928L69.0049-57.1490L69.2974-55.9170L70.8219-55.9170L72.3464-55.9170L73.8709-55.9170L75.3954-55.9170L76.9199-55.9170L78.4444-55.9170L79.9689-55.9170L81.4934-55.9170L83.0179-55.9170L84.5424-55.9170L86.0669-55.9170L87.5914-55.9156L89.1152-55.8725L90.6354-55.7602L92.1469-55.5630L93.6408-55.2612L95.1025-54.8302L96.5077-54.2416L97.8201-53.4687L98.9917-52.4961L99.9770-51.3354L100.7602-50.0291L101.3541-48.6262L101.7863-47.1649L102.0870-45.6707L102.2825-44.1591L102.3943-42.6388L102.4387-41.1151L102.4410-39.5906L102.4410-38.0661L102.4410-36.5416L102.4410-35.0171L102.4410-33.4926L102.4410-31.9680L102.4410-30.4435L102.4346-28.9191L102.3763-27.3958L102.2462-25.8770L102.0276-24.3686L101.6992-22.8803L101.2356-21.4287L100.6081-20.0405L99.7915-18.7549L98.7764-17.6201L97.5798-16.6785L96.2483-15.9389L94.8295-15.3835L93.3593-14.9825L91.8603-14.7068L90.3462-14.5312L88.8248-14.4361L87.3007-14.4059L85.7762-14.4058L84.2517-14.4058L82.7272-14.4058L81.2027-14.4058L79.6781-14.4058L78.1536-14.4058L76.6291-14.4058L75.1046-14.4058L73.5801-14.4058L72.0556-14.4058L70.5311-14.4058L69.0066-14.4058L67.4821-14.4058L65.9975-14.3659L65.9975-12.8414L66.9140-12.2334L68.4385-12.2334L69.9630-12.2334L71.4875-12.2334L73.0120-12.2334L74.5365-12.2334L76.0610-12.2334L77.5855-12.2334L79.1100-12.2334L80.6345-12.2334L82.1590-12.2334L83.6835-12.2334L85.2080-12.2334ZM27.9908-17.4654L29.0448-17.4789L30.098-17.5209L31.1491-17.5984L32.1961-17.7199L33.2349-17.8975L34.2586-18.1476L35.2555-18.4884L36.2054-18.943L37.0786-19.5313L37.8326-20.2653L38.4453-21.1214L38.9252-22.0589L39.2887-23.0477L39.5586-24.0663L39.7532-25.102L39.8893-26.1472L39.9777-27.1975L40.0275-28.2503L40.0459-29.3042L40.0474-30.3583L39.7363-31.3388L39.3067-32.3007L38.9386-33.288L38.6407-34.2992L38.4169-35.3289L38.2587-36.3704L38.1663-37.4196L38.1301-38.4728L38.1294-39.5269L38.1294-40.581L38.1294-41.6351L38.1294-42.6892L38.1294-43.7433L38.1294-44.7974L38.1294-45.8515L38.1294-46.9056L38.1294-47.9597L38.1294-49.0138L37.9259-49.9944L37.1775-50.7323L36.3007-51.3154L35.3509-51.7709L34.3566-52.1196L33.3352-52.3791L32.2988-52.5702L31.2533-52.704L30.2029-52.791L29.15-52.8403L28.0961-52.8566L27.042-52.8515L25.9882-52.8307L24.9351-52.7849L23.8843-52.7014L22.838-52.5752L21.7994-52.3977L20.7745-52.1557L19.7729-51.8321L18.8089-51.4066L17.9321-50.8216L17.1933-50.0752L16.5955-49.2134L16.1271-48.2724L15.769-47.2823L15.501-46.263L15.315-45.2255L15.1824-44.18L15.091-43.1301L15.0337-42.0777L15.0045-41.0241L14.9976-39.97L14.9976-38.9159L14.9976-37.8618L14.9976-36.8077L14.9976-35.7536L14.9976-34.6995L14.9976-33.6454L14.9976-32.5913L14.9976-31.5372L14.9976-30.4831L15.0009-29.4291L15.0161-28.3751L15.0582-27.3219L15.1426-26.2712L15.2738-25.2255L15.4618-24.189L15.7203-23.1683L16.0655-22.174L16.5156-21.221L17.1201-20.3574L17.8772-19.6305L18.7452-19.0414L19.6885-18.577L20.6786-18.2183L21.6975-17.9483L22.7347-17.7609L23.7801-17.6281L24.8302-17.5394L25.8829-17.4881L26.9367-17.4666ZM107.9321-26.8850L108.8682-27.1314L109.7358-27.5627L110.5246-28.1262L111.2307-28.7907L111.8517-29.5354L112.3848-30.3454L112.8272-31.2084L113.1761-32.1132L113.4298-33.0492L113.5881-34.0060L113.6521-34.9738L113.6242-35.9432L113.5031-36.9054L113.2866-37.8508L112.9746-38.7690L112.5685-39.6496L112.0704-40.4817L111.4834-41.2535L110.8101-41.9512L110.0534-42.5572L109.2159-43.0449L108.3042-43.3716L107.6920-43.1142L107.6920-42.1440L107.6920-41.1738L107.6920-40.2035L107.6920-39.2333L107.6920-38.2631L107.6920-37.2929L107.6920-36.3227L107.6920-35.3525L107.6920-34.3822L107.6920-33.4120L107.6920-32.4418L107.6920-31.4716L107.6920-30.5014L107.6920-29.5312L107.6920-28.5609L107.6920-27.5907Z" />
  </g>
 </g>
</svg>
