<?xml version="1.0" encoding="UTF-8"?>
<!--
  PowerLens menu bar battery asset.
  Generated for PowerLens battery status rendering.
-->
<svg version="1.1" xmlns="http://www.w3.org/2000/svg" viewBox="0 0 3300 2200">
 <style>.PowerLensBatteryShape {fill:none;opacity:1.0;stroke:black;stroke-width:0.5}
</style>
 <g id="Symbols">
  <g id="Black-S" transform="matrix(1 0 0 1 2861.82 696)">
   <path class="PowerLensBatteryShape" d="M33.8379 -24.9512 L53.4473 -24.9512 C54.6191 -24.9512 55.4004 -25.1465 55.9863 -25.7324 C56.5723 -26.3184 56.7676 -27.0996 56.7676 -28.2715 L56.7676 -42.2363 C56.7676 -43.4082 56.5723 -44.1895 55.9863 -44.7754 C55.4004 -45.3613 54.6191 -45.5566 53.4473 -45.5566 L33.8379 -45.5566 C32.666 -45.5566 31.8848 -45.3613 31.2988 -44.7754 C30.7129 -44.1895 30.5176 -43.4082 30.5176 -42.2363 L30.5176 -28.2715 C30.5176 -27.0996 30.7129 -26.3184 31.2988 -25.7324 C31.8848 -25.1465 32.666 -24.9512 33.8379 -24.9512 ZM33.6914-4.19922L92.9688-4.19922C102.1-4.19922 107.324-5.71289 111.377-9.76562C115.43-13.8184 116.895-18.8965 116.895-28.125L116.895-42.3828C116.895-51.6113 115.43-56.7383 111.377-60.7422C107.275-64.7949 102.1-66.3086 92.9688-66.3086L33.6914-66.3086C24.5605-66.3086 19.3359-64.7949 15.2832-60.7422C11.2305-56.6895 9.76562-51.6113 9.76562-42.3828L9.76562-28.125C9.76562-18.8965 11.2305-13.7695 15.2832-9.76562C19.3848-5.71289 24.5605-4.19922 33.6914-4.19922ZM32.6172-18.3594C28.4668-18.3594 26.9043-18.9941 25.6836-20.166C24.4629-21.3379 23.9258-22.8516 23.9258-27.0508L23.9258-43.457C23.9258-47.6562 24.5117-49.1211 25.6836-50.3418C26.8555-51.5625 28.4668-52.1484 32.6172-52.1484L94.043-52.1484C98.1934-52.1484 99.7559-51.5137 100.977-50.3418C102.197-49.1699 102.734-47.6562 102.734-43.457L102.734-27.0508C102.734-22.8516 102.148-21.3867 100.977-20.166C99.8047-18.9453 98.1934-18.3594 94.043-18.3594ZM124.219-22.4609C128.125-22.7051 133.398-27.7344 133.398-35.2539C133.398-42.7734 128.125-47.8027 124.219-48.0469Z"/>
  </g>
  <g id="Regular-S" transform="matrix(1 0 0 1 1382.41 696)">
   <path class="PowerLensBatteryShape" d="M27.0996 -20.5078 L47.5294 -20.5078 C49.6778 -20.5078 50.8985 -20.8008 51.7774 -21.7285 C52.7051 -22.6562 53.0468 -23.877 53.0468 -25.9766 L53.0468 -44.5312 C53.0468 -46.6309 52.7051 -47.8516 51.8262 -48.7793 C50.8985 -49.707 49.629 -49.9512 47.5294 -49.9512 L27.0996 -49.9512 C25 -49.9512 23.7305 -49.707 22.8516 -48.7793 C21.9238 -47.8516 21.582 -46.6309 21.582 -44.4824 L21.582 -25.9766 C21.582 -23.877 21.9238 -22.6562 22.8516 -21.7285 C23.7793 -20.8008 25 -20.5078 27.0996 -20.5078 ZM30.6152-8.69141L91.2109-8.69141C97.5098-8.69141 103.32-9.22852 107.471-13.3301C111.572-17.4805 112.061-23.291 112.061-29.541L112.061-40.9668C112.061-47.2168 111.572-53.0273 107.471-57.1289C103.32-61.2793 97.5098-61.8164 91.2109-61.8164L30.6152-61.8164C24.3652-61.8164 18.5059-61.2793 14.3555-57.1289C10.2539-53.0273 9.76562-47.2168 9.76562-40.9668L9.76562-29.541C9.76562-23.291 10.2539-17.4805 14.3555-13.3301C18.5059-9.22852 24.3164-8.69141 30.6152-8.69141ZM29.541-15.7227C25.9766-15.7227 21.7773-16.1621 19.4824-18.457C17.1875-20.752 16.7969-24.9023 16.7969-28.4668L16.7969-41.9922C16.7969-45.6055 17.1875-49.707 19.4824-52.0508C21.7773-54.3457 25.9766-54.7363 29.5898-54.7363L92.2852-54.7363C95.8496-54.7363 100.049-54.3457 102.344-52.0508C104.639-49.707 105.029-45.6055 105.029-41.9922L105.029-28.4668C105.029-24.9023 104.639-20.752 102.344-18.457C100.049-16.1621 95.8496-15.7227 92.2852-15.7227ZM117.773-25C120.898-25.1953 125.098-29.1992 125.098-35.2539C125.098-41.3086 120.898-45.3125 117.773-45.5078Z"/>
  </g>
  <g id="Ultralight-S" transform="matrix(1 0 0 1 498.001 696)">
   <path class="PowerLensBatteryShape" d="M27.0542 -17.4654 L36.6673 -17.4654 C41.6311 -17.4654 44.5774 -18.2578 46.2283 -19.9575 C47.928 -21.7026 48.7693 -24.6489 48.7693 -29.5185 L48.7693 -40.8076 C48.7693 -45.7681 47.928 -48.6235 46.2771 -50.3686 C44.5774 -52.0229 41.5369 -52.8574 36.6673 -52.8574 L27.1266 -52.8574 C22.1846 -52.8574 19.0987 -52.0683 17.4478 -50.414 C15.7935 -48.6689 14.9976 -45.6318 14.9976 -40.3501 L14.9976 -29.5185 C14.9976 -24.5581 15.7935 -21.7026 17.4478 -19.9575 C19.1929 -18.3032 22.23 -17.4654 27.0542 -17.4654 ZM28.1631-12.2334L86.2613-12.2334C93.877-12.2334 97.8257-13.27 100.75-16.1455C103.626-19.0698 104.613-22.9277 104.613-30.6309L104.613-39.6953C104.613-47.3984 103.626-51.3018 100.75-54.1773C97.7803-57.0562 93.877-58.0928 86.2613-58.0928L27.709-58.0928C20.5962-58.0928 16.5986-57.0108 13.7197-54.1319C10.7988-51.211 9.76562-47.3076 9.76562-40.1948L9.76562-30.6309C9.76562-22.9277 10.7534-19.0244 13.6743-16.1455C16.5986-13.27 20.502-12.2334 28.1631-12.2334ZM27.1797-14.4058C21.6626-14.4058 17.7359-15.481 15.3501-17.8667C12.9644-20.2524 11.9834-24.085 11.9834-29.6475L11.9834-40.2212C11.9834-46.1504 12.9644-50.1157 15.3047-52.5049C17.6905-54.936 21.7535-55.917 27.6372-55.917L87.2447-55.917C92.7617-55.917 96.6431-54.8452 99.0288-52.4595C101.415-50.0703 102.441-46.2412 102.441-40.6753L102.441-29.6475C102.441-24.085 101.369-20.2524 99.0288-17.8667C96.6431-15.4356 92.7617-14.4058 87.2447-14.4058ZM107.692-26.8618C110.227-27.0117 113.654-30.2891 113.654-35.1631C113.654-40.0371 110.227-43.3145 107.692-43.4644Z"/>
  </g>
 </g>
</svg>
